<svg xmlns="http://www.w3.org/2000/svg" viewBox="0 0 1581 1581" width="1581" height="1581">
  <rect width="1581" height="1581" fill="#1e5c42"/>
  <g transform="translate(458.5 113)">
  <path fill-rule="evenodd" fill="#708768" d="M 333.750 12.998 C 335.276 14.710, 335.373 19.359, 333.945 22.316 C 332.926 24.426, 332.943 24.434, 334.445 22.559 C 336.546 19.936, 336.438 14.576, 334.250 12.921 C 332.761 11.794, 332.687 11.806, 333.750 12.998 M 313.784 25.738 C 316.689 25.941, 321.189 25.939, 323.784 25.734 C 326.378 25.528, 324 25.363, 318.500 25.365 C 313 25.368, 310.878 25.536, 313.784 25.738 M 373.250 59.716 C 374.762 59.945, 377.238 59.945, 378.750 59.716 C 380.262 59.487, 379.025 59.300, 376 59.300 C 372.975 59.300, 371.738 59.487, 373.250 59.716 M 384.853 62.530 C 391.298 67.953, 394.708 88.879, 391.933 105.981 C 389.484 121.078, 381.747 134.734, 365.387 152.832 L 354.840 164.500 364.959 154 C 385.385 132.806, 393.934 115.083, 393.983 93.838 C 394 86.061, 392.107 73.957, 390.020 68.500 C 388.808 65.331, 384.240 60, 382.736 60 C 382.247 60, 383.199 61.138, 384.853 62.530 M 509.972 71.052 C 507.767 75.173, 509.288 77.227, 522.333 87.737 C 529.390 93.423, 534.855 97.575, 534.477 96.963 C 534.098 96.350, 528.436 91.586, 521.894 86.375 C 509.791 76.735, 508.735 75.233, 511.035 70.934 C 511.605 69.870, 511.845 69, 511.570 69 C 511.295 69, 510.576 69.923, 509.972 71.052 M 137.250 78.059 C 133.813 80.804, 131 83.271, 131 83.542 C 131 83.812, 133.925 81.735, 137.500 78.926 C 143.085 74.536, 144.835 72.887, 143.750 73.034 C 143.613 73.052, 140.688 75.314, 137.250 78.059 M 328.750 79.515 C 325.587 81.998, 323 84.247, 323 84.514 C 323 84.780, 325.700 82.901, 329 80.338 C 334.317 76.210, 335.621 74.998, 334.750 75.001 C 334.613 75.001, 331.913 77.033, 328.750 79.515 M 350.912 88.362 C 344.538 91.301, 336.593 95.560, 333.255 97.827 C 311.789 112.404, 300.164 135.435, 298.339 167 C 297.492 181.646, 298.510 181.118, 306.583 162.717 C 309.773 155.448, 314.133 146.694, 316.272 143.264 C 319.902 137.444, 328.139 129, 330.186 129 C 331.731 129, 329.945 135.957, 324.826 149.877 C 320.790 160.856, 319.961 164.219, 320.204 168.629 L 320.500 174.003 333.500 162.302 C 351.008 146.544, 359.027 138.036, 365.359 128.500 C 376.022 112.441, 379.503 98.826, 375.134 90.262 C 370.600 81.376, 366.721 81.072, 350.912 88.362 M 314.007 92.700 C 306.693 100.532, 300.040 109.287, 295.922 116.500 C 292.498 122.498, 294.099 120.530, 300.801 110.500 C 304.109 105.550, 310.271 97.787, 314.494 93.250 C 318.718 88.713, 321.954 85, 321.685 85 C 321.417 85, 317.962 88.465, 314.007 92.700 M 540 85.279 C 540 85.541, 543.017 88.398, 546.704 91.628 C 550.391 94.858, 553.093 96.984, 552.709 96.353 C 551.847 94.940, 540 84.617, 540 85.279 M 102.285 109.368 C 95.709 116.171, 86.347 126.633, 81.479 132.618 C 70.954 145.560, 70.617 146, 71.238 146 C 71.504 146, 75.795 140.904, 80.774 134.675 C 85.753 128.447, 95.539 117.422, 102.520 110.175 C 109.501 102.929, 114.994 97, 114.727 97 C 114.459 97, 108.860 102.566, 102.285 109.368 M 567.500 111 C 575.185 118.700, 581.698 125, 581.973 125 C 582.248 125, 576.185 118.700, 568.500 111 C 560.815 103.300, 554.302 97, 554.027 97 C 553.752 97, 559.815 103.300, 567.500 111 M 113.252 117.250 C 92.196 138.401, 79.245 154.453, 66.253 175.500 C 60.424 184.943, 51 202.294, 51 203.583 C 51 204.079, 54.181 198.639, 58.069 191.493 C 73.116 163.836, 88.421 143.513, 112.850 118.750 C 121.938 109.537, 129.162 102, 128.903 102 C 128.645 102, 121.602 108.862, 113.252 117.250 M 556.617 118.013 C 596.698 160.053, 616.026 193.413, 634.823 253 L 635.927 256.500 635.364 253 C 634.330 246.573, 625.245 220.648, 619.626 208.088 C 604.721 174.774, 584.514 145.654, 557.117 118.006 L 543.734 104.500 556.617 118.013 M 289.233 129.720 C 286.773 135.486, 283.980 144.769, 284.053 146.932 C 284.082 147.794, 285.215 144.751, 286.569 140.170 C 287.924 135.588, 289.733 130.484, 290.590 128.827 C 291.446 127.170, 291.951 125.617, 291.710 125.377 C 291.469 125.136, 290.355 127.090, 289.233 129.720 M 588.676 134 C 592.586 138.675, 599.096 147.241, 603.142 153.036 C 612.574 166.542, 614.257 168.839, 613.368 167 C 610.089 160.218, 587.857 130.484, 583.460 127 C 582.418 126.175, 584.766 129.325, 588.676 134 M 65.788 153.250 C 60.473 160.858, 59.759 162, 60.316 162 C 60.555 162, 63.083 158.625, 65.935 154.500 C 68.787 150.375, 70.903 147, 70.637 147 C 70.372 147, 68.190 149.813, 65.788 153.250 M 282.651 154.226 C 282.302 157.126, 282.085 164.450, 282.168 170.500 C 282.312 181.007, 282.351 180.783, 283.041 165.500 C 283.438 156.700, 283.655 149.376, 283.524 149.226 C 283.392 149.075, 282.999 151.325, 282.651 154.226 M 54.225 171.250 C 47.539 182.487, 41.829 193.162, 42.270 193.603 C 42.469 193.803, 44.598 190.261, 47.001 185.733 C 49.403 181.205, 53.139 174.575, 55.303 171 C 57.467 167.425, 59.436 164.162, 59.678 163.750 C 59.920 163.338, 59.897 163, 59.626 163 C 59.356 163, 56.925 166.713, 54.225 171.250 M 337.609 180.015 C 323.667 194.262, 314 206.287, 314 209.382 C 314 209.972, 315.688 207.567, 317.750 204.038 C 320.174 199.889, 327.156 191.834, 337.500 181.251 C 346.300 172.248, 353.688 164.684, 353.917 164.441 C 354.146 164.199, 354.097 164, 353.807 164 C 353.518 164, 346.229 171.207, 337.609 180.015 M 623.667 186.654 C 627.425 193.888, 630.663 199.650, 630.862 199.458 C 631.311 199.026, 619.238 175.880, 617.844 174.500 C 617.289 173.950, 619.909 179.419, 623.667 186.654 M 283.141 184.500 C 282.961 187.892, 287 210.333, 287.670 209.664 C 287.909 209.425, 287.196 204.340, 286.085 198.365 C 284.974 192.389, 283.893 186.150, 283.683 184.500 L 283.300 181.500 283.141 184.500 M 559.673 193.608 C 563.639 197.421, 564.415 201.331, 563.797 214.391 C 563.534 219.951, 563.644 223.150, 564.041 221.500 C 564.438 219.850, 564.816 214.450, 564.880 209.500 C 565.010 199.508, 563.444 194.878, 559 192.113 C 557.009 190.874, 557.146 191.179, 559.673 193.608 M 36.056 206.489 C 28.767 223.110, 17.882 256.215, 19.255 257.589 C 19.484 257.817, 20.908 253.392, 22.420 247.754 C 25.661 235.668, 32.633 216.111, 37.538 205.346 C 39.457 201.137, 40.852 197.519, 40.640 197.306 C 40.427 197.094, 38.364 201.226, 36.056 206.489 M 631.176 201.500 C 632.763 206.330, 640.460 224.873, 640.756 224.577 C 641.231 224.103, 633.380 204.045, 631.919 202 C 631.330 201.175, 630.996 200.950, 631.176 201.500 M 47.516 211.144 C 43.876 219.256, 38.819 233.152, 39.324 233.657 C 39.542 233.876, 40.960 230.555, 42.473 226.277 C 43.987 222, 46.529 215.616, 48.122 212.092 C 49.714 208.568, 50.854 205.521, 50.655 205.321 C 50.455 205.122, 49.043 207.742, 47.516 211.144 M 210 206.608 C 205.325 207.462, 194.975 210.414, 187 213.169 C 167.734 219.824, 158.299 222.749, 153.706 223.493 C 151.619 223.831, 148.495 225.373, 146.763 226.920 C 144.035 229.358, 143.615 230.393, 143.615 234.687 C 143.615 245.737, 154.667 254.246, 176.671 260.138 C 186.110 262.665, 208.180 263.174, 220 261.137 C 227.347 259.870, 254.099 253.383, 263 250.710 L 267.500 249.358 263.323 247.196 C 255.809 243.306, 245.036 241.104, 226 239.567 C 207.331 238.059, 196 236.333, 196 234.998 C 196 233.900, 203.793 231.150, 211.573 229.502 C 219.815 227.756, 231.341 227.611, 246.447 229.062 C 252.526 229.646, 261.241 229.983, 265.814 229.812 L 274.129 229.500 270.425 225.178 C 257.072 209.597, 233.424 202.329, 210 206.608 M 508.500 208.091 C 470.485 210.632, 449.965 217.486, 429.627 234.438 C 417.121 244.861, 406.439 262.566, 401.533 281 C 397.376 296.621, 397.599 296.832, 407.750 286.878 C 424.841 270.119, 438.976 259.497, 454.500 251.746 C 461.948 248.028, 476.018 242.685, 476.663 243.330 C 476.876 243.542, 469.501 249.798, 460.275 257.232 C 442.074 271.897, 428.842 284.924, 422.173 294.745 C 417.909 301.024, 409.700 317.033, 410.390 317.724 C 410.594 317.927, 419.353 313.798, 429.854 308.547 C 440.356 303.296, 449.187 299, 449.479 299 C 450.739 299, 492.283 277.812, 500.156 273.155 C 512.769 265.693, 527.679 254.284, 534.106 247.176 C 547.551 232.310, 551.915 213.110, 542.909 208.453 C 539.790 206.840, 528.935 206.726, 508.500 208.091 M 288.099 211.507 C 288.044 212.060, 288.419 213.973, 288.930 215.757 C 290.095 219.819, 289.486 219.818, 285 215.750 C 283.029 213.963, 283.427 214.512, 285.884 216.971 C 290.880 221.971, 291.662 221.553, 289.604 214.986 C 288.830 212.519, 288.153 210.953, 288.099 211.507 M 312.078 214.656 C 310.415 220.646, 310.703 233.247, 312.555 235.559 C 314.057 237.434, 314.074 237.426, 313.055 235.316 C 311.726 232.564, 311.680 219.603, 312.983 215.060 C 313.523 213.175, 313.781 211.448, 313.556 211.222 C 313.330 210.997, 312.665 212.542, 312.078 214.656 M 127.809 216.750 C 124.025 220.807, 122.982 223.374, 123.160 228.184 C 123.306 232.120, 123.352 232.192, 123.680 229 C 124.318 222.793, 124.972 221.101, 128.118 217.518 C 131.762 213.369, 131.521 212.770, 127.809 216.750 M 413.462 227.250 C 406.883 234.561, 400.835 242.606, 397.486 248.500 C 393.566 255.398, 394.906 253.933, 400.861 244.811 C 403.613 240.594, 408.837 233.737, 412.469 229.572 C 416.101 225.407, 418.873 222, 418.629 222 C 418.385 222, 416.060 224.363, 413.462 227.250 M 558.709 235.967 C 555.251 244.453, 549.980 252.670, 542.971 260.500 C 539.565 264.305, 538.984 265.219, 541.382 263 C 547.463 257.374, 554.010 248.123, 558.221 239.206 C 560.375 234.644, 561.994 230.508, 561.819 230.014 C 561.643 229.520, 560.244 232.199, 558.709 235.967 M 642.388 231 C 645.773 243.632, 649.893 257.178, 649.941 255.830 C 650.012 253.825, 643.188 229.831, 642.324 229.048 C 641.991 228.747, 642.020 229.625, 642.388 231 M 124.057 234 C 124.009 235.932, 128.275 244.903, 130.477 247.500 C 131.456 248.656, 131.241 247.891, 129.965 245.687 C 128.752 243.589, 126.934 239.764, 125.926 237.187 C 124.918 234.609, 124.077 233.175, 124.057 234 M 36.533 240.533 C 35.625 243.658, 35.068 246.401, 35.295 246.629 C 35.523 246.856, 36.440 244.473, 37.333 241.333 C 38.227 238.193, 38.784 235.450, 38.571 235.238 C 38.359 235.025, 37.442 237.408, 36.533 240.533 M 365 240.683 C 365 241.273, 365.658 242.301, 366.462 242.969 C 368.514 244.672, 371.724 253.680, 374.669 266 C 376.049 271.775, 377.500 276.839, 377.893 277.254 C 378.286 277.668, 379.483 277.306, 380.554 276.449 C 382.442 274.936, 382.436 274.921, 380.347 275.928 C 378.298 276.916, 378.111 276.591, 376.487 269.233 C 373.799 257.053, 370.284 246.774, 367.531 243.042 C 366.139 241.155, 365 240.094, 365 240.683 M 31.660 258.686 C 28.653 271.460, 26.968 280.568, 27.082 283.434 C 27.127 284.570, 28.199 280.100, 29.466 273.500 C 30.732 266.900, 32.520 258.638, 33.440 255.139 C 34.360 251.641, 34.908 248.575, 34.659 248.325 C 34.409 248.076, 33.060 252.738, 31.660 258.686 M 133.767 252.500 C 134.909 254.150, 138.454 257.975, 141.644 261 L 147.443 266.500 141.039 259.500 C 132.234 249.875, 131.377 249.050, 133.767 252.500 M 636.109 258 C 636.070 258.825, 636.665 261.750, 637.430 264.500 C 638.195 267.250, 638.853 268.825, 638.891 268 C 638.930 267.175, 638.335 264.250, 637.570 261.500 C 636.805 258.750, 636.147 257.175, 636.109 258 M 390.440 262.519 C 389.465 265.071, 387.323 269.035, 385.680 271.329 C 383.524 274.339, 383.299 274.964, 384.871 273.573 C 387.281 271.440, 393.609 259.276, 392.753 258.420 C 392.455 258.122, 391.414 259.967, 390.440 262.519 M 650.111 258.500 C 650.050 259.050, 650.645 262.875, 651.434 267 C 655.412 287.817, 656.266 298.741, 656.944 337.500 L 657.626 376.500 657.779 344 C 657.935 311.070, 657.334 299.383, 654.464 279.446 C 652.944 268.893, 650.344 256.384, 650.111 258.500 M 18 259.426 C 18 259.844, 17.066 264.757, 15.924 270.343 C 10.014 299.259, 9.833 302.364, 8.988 389.500 C 8.057 485.526, 8.023 815.215, 8.931 945.500 C 9.283 996.100, 9.410 916.900, 9.212 769.500 C 9.014 622.100, 9.312 457.850, 9.873 404.500 C 10.974 299.867, 11.006 299.250, 16.965 270.127 C 18.133 264.422, 18.843 259.510, 18.544 259.211 C 18.245 258.911, 18 259.008, 18 259.426 M 287.902 270.385 C 290.246 273.608, 290.847 283.377, 288.945 287.316 C 287.926 289.426, 287.943 289.434, 289.445 287.559 C 290.479 286.268, 291 283.523, 291 279.365 C 291 274.019, 290.623 272.705, 288.402 270.306 L 285.805 267.500 287.902 270.385 M 639.102 270.922 C 639.046 271.704, 639.679 275.979, 640.508 280.422 C 641.337 284.865, 642.639 293.675, 643.401 300 C 644.162 306.325, 644.831 309.700, 644.887 307.500 C 645.047 301.209, 639.464 265.903, 639.102 270.922 M 25.614 291.226 C 25.245 294.126, 24.788 301.900, 24.599 308.500 C 24.409 315.100, 24.415 318.025, 24.612 315 C 24.809 311.975, 25.463 304.399, 26.065 298.164 C 27.176 286.669, 26.843 281.552, 25.614 291.226 M 245.586 305.171 C 234.965 317.579, 234.566 336.641, 244.713 346.877 L 249.296 351.500 245.198 346.827 C 235.623 335.907, 236.244 317.253, 246.586 305.171 C 248.549 302.877, 249.931 301, 249.656 301 C 249.381 301, 247.549 302.877, 245.586 305.171 M 343.286 309.500 C 343.294 312.250, 343.488 313.256, 343.718 311.736 C 343.947 310.216, 343.941 307.966, 343.704 306.736 C 343.467 305.506, 343.279 306.750, 343.286 309.500 M 396.286 309.500 C 396.294 312.250, 396.488 313.256, 396.718 311.736 C 396.947 310.216, 396.941 307.966, 396.704 306.736 C 396.467 305.506, 396.279 306.750, 396.286 309.500 M 645.349 320 C 645.349 324.675, 645.522 326.587, 645.732 324.250 C 645.943 321.913, 645.943 318.087, 645.732 315.750 C 645.522 313.413, 645.349 315.325, 645.349 320 M 23.494 639 C 23.494 813.625, 23.609 885.063, 23.750 797.750 C 23.891 710.438, 23.891 567.563, 23.750 480.250 C 23.609 392.938, 23.494 464.375, 23.494 639 M 437.809 324.750 C 433.016 329.889, 432.562 331.738, 431.977 348.500 C 431.349 366.492, 429.771 372.007, 423.723 377.345 L 420.500 380.190 423.878 377.936 C 425.995 376.523, 428.226 373.594, 429.852 370.091 C 432.200 365.032, 432.499 362.978, 432.991 348.500 C 433.562 331.731, 434.012 329.894, 438.809 324.750 C 440.220 323.238, 441.149 322, 440.874 322 C 440.599 322, 439.220 323.238, 437.809 324.750 M 247.039 330.800 C 246.974 332.976, 249.650 337.360, 252.655 339.996 L 255.500 342.493 252.805 339.496 C 251.323 337.848, 249.428 334.925, 248.594 333 C 247.760 331.075, 247.061 330.085, 247.039 330.800 M 646.249 678.093 C 646.112 869.819, 645.801 1032.269, 645.559 1039.093 L 645.118 1051.500 646.060 1039.500 C 646.631 1032.221, 646.902 890.202, 646.749 678.500 L 646.497 329.500 646.249 678.093 M 272.147 360.878 C 279.870 365.776, 281.387 372.551, 278.441 389 C 277.531 394.084, 277.176 399.509, 277.558 402.500 C 278.162 407.222, 281.302 416, 282.388 416 C 282.663 416, 282.057 414.087, 281.042 411.750 C 278.210 405.226, 277.737 398.514, 279.441 389 C 282.288 373.101, 280.854 366.080, 273.701 360.898 C 271.500 359.304, 269.229 358, 268.654 358 C 268.079 358, 269.651 359.295, 272.147 360.878 M 378.286 363.500 C 378.294 366.250, 378.488 367.256, 378.718 365.736 C 378.947 364.216, 378.941 361.966, 378.704 360.736 C 378.467 359.506, 378.279 360.750, 378.286 363.500 M 658.477 457 C 658.477 501.275, 658.600 519.388, 658.750 497.250 C 658.900 475.113, 658.900 438.888, 658.750 416.750 C 658.600 394.613, 658.477 412.725, 658.477 457 M 385.794 385.539 C 385.498 385.836, 386.302 388.648, 387.582 391.789 C 390.723 399.498, 391.336 406.156, 389.628 414 C 387.996 421.495, 388.287 423.255, 390.100 416.851 C 392.227 409.338, 391.704 399.315, 388.818 392.293 L 386.267 386.085 392.883 385.739 L 399.500 385.392 392.917 385.196 C 389.296 385.088, 386.091 385.243, 385.794 385.539 M 441.750 387.068 C 439.688 388.157, 438 389.271, 438 389.544 C 438 389.990, 445.899 386.298, 446.917 385.377 C 448.067 384.336, 445.064 385.319, 441.750 387.068 M 523.083 385.380 C 524.103 386.309, 534 390.982, 534 390.534 C 534 389.970, 524.450 385, 523.367 385 C 522.982 385, 522.854 385.171, 523.083 385.380 M 333.286 393.500 C 333.294 396.250, 333.488 397.256, 333.718 395.736 C 333.947 394.216, 333.941 391.966, 333.704 390.736 C 333.467 389.506, 333.279 390.750, 333.286 393.500 M 536.975 392.706 C 538.336 393.693, 541.486 395.982, 543.975 397.792 L 548.500 401.085 544.848 397.792 C 542.840 395.982, 539.690 393.693, 537.848 392.706 C 534.628 390.982, 534.595 390.982, 536.975 392.706 M 464.815 396.395 C 433.184 404.769, 406.466 431.853, 391.963 470.246 C 390.146 475.057, 388.961 479.294, 389.330 479.663 C 389.699 480.032, 395.513 474.953, 402.250 468.376 C 416.862 454.112, 424.221 448.347, 435.257 442.521 C 442.508 438.693, 452.391 435, 455.384 435 C 457.153 435, 448.960 442.810, 436 453.479 C 429.125 459.139, 421.857 465.508, 419.850 467.634 C 414.789 472.993, 407.704 483.401, 408.855 483.785 C 410.138 484.213, 432.798 478.590, 447 474.321 C 478.476 464.858, 502.103 450.604, 517.947 431.517 C 528.718 418.543, 530.849 413.968, 528.614 408.619 C 526.998 404.751, 523.967 402.651, 515.287 399.384 C 499.435 393.417, 480.336 392.286, 464.815 396.395 M 549 401.592 C 549 401.918, 549.900 403.329, 551 404.727 C 552.351 406.445, 553 408.784, 553 411.939 C 553 417.638, 550.306 422.118, 540.037 433.500 L 532.818 441.500 540.548 433.500 C 554.111 419.463, 556.874 412.386, 551.918 404.368 C 549.943 401.172, 549 400.275, 549 401.592 M 407.702 413.042 C 400.914 420.348, 391.181 433, 392.348 433 C 392.610 433, 394.847 430.165, 397.320 426.700 C 399.792 423.235, 405.051 416.935, 409.007 412.700 C 412.962 408.465, 415.967 405, 415.685 405 C 415.404 405, 411.811 408.619, 407.702 413.042 M 190.292 410.742 C 194.027 410.935, 199.877 410.934, 203.292 410.739 C 206.706 410.545, 203.650 410.387, 196.500 410.389 C 189.350 410.390, 186.556 410.550, 190.292 410.742 M 333.300 415 C 333.300 418.025, 333.487 419.262, 333.716 417.750 C 333.945 416.238, 333.945 413.762, 333.716 412.250 C 333.487 410.738, 333.300 411.975, 333.300 415 M 284.038 418.417 C 285.886 420.840, 292.942 426.001, 294.400 425.996 C 295.005 425.994, 293.925 425.048, 292 423.894 C 290.075 422.740, 287.167 420.604, 285.538 419.148 C 283.909 417.692, 283.234 417.363, 284.038 418.417 M 381.316 435.304 C 373.168 452.858, 369.824 464.576, 374.217 460.183 C 375.084 459.316, 375.094 459, 374.254 459 C 372.432 459, 375.470 450.049, 382.176 435.663 C 385.467 428.603, 387.998 422.665, 387.801 422.467 C 387.603 422.270, 384.685 428.047, 381.316 435.304 M 183.500 426.576 C 162.193 429.554, 154.784 431.221, 147.167 434.752 C 134.649 440.554, 135.059 448.673, 148.798 467 C 166.453 490.552, 189.970 508.447, 211.792 514.935 C 226.955 519.442, 314.640 537.693, 315.759 536.574 C 316.871 535.462, 308.463 524.398, 300.032 515.880 C 288.522 504.251, 270.196 492.844, 235.750 475.867 C 230.938 473.495, 227 471.247, 227 470.872 C 227 470.020, 233.112 470.693, 243.500 472.691 C 264.537 476.735, 286.193 488.166, 311.929 508.808 C 318.215 513.850, 323.571 517.762, 323.832 517.502 C 324.701 516.632, 314.182 496.168, 308.305 487.299 C 300.784 475.947, 284.350 458.949, 273.256 451.045 C 258.227 440.338, 240.219 432.560, 222 428.905 C 212.929 427.085, 189.845 425.689, 183.500 426.576 M 114.481 431.205 C 112.138 433.989, 111.865 434.995, 112.396 438.874 C 112.938 442.827, 117.263 452, 118.584 452 C 118.859 452, 117.942 450.051, 116.546 447.669 C 115.150 445.287, 113.733 441.329, 113.396 438.874 C 112.865 434.995, 113.138 433.989, 115.481 431.205 C 116.964 429.442, 117.953 428, 117.678 428 C 117.403 428, 115.964 429.442, 114.481 431.205 M 341.552 442 C 346.399 447.558, 347.064 448.613, 349.578 454.724 C 350.884 457.901, 351.963 459.784, 351.976 458.910 C 352.022 455.871, 346.055 445.447, 342.289 441.984 L 338.500 438.500 341.552 442 M 298.693 450.349 C 309.366 460.463, 318.075 470.955, 325.928 483.162 C 333.615 495.112, 334.571 496.375, 331.100 490 C 323.440 475.930, 306.729 455.664, 294.736 445.900 C 291.856 443.556, 293.637 445.558, 298.693 450.349 M 378 453.500 C 376.297 455.975, 375.129 458, 375.404 458 C 375.679 458, 377.297 455.975, 379 453.500 C 380.703 451.025, 381.871 449, 381.596 449 C 381.321 449, 379.703 451.025, 378 453.500 M 518 453.136 L 513.500 457.211 517.736 454.033 C 521.420 451.268, 523.786 448.936, 522.809 449.030 C 522.639 449.046, 520.475 450.894, 518 453.136 M 125.941 463.250 C 134.465 474.883, 141.871 483.448, 151.667 493 L 162.435 503.500 150.402 491 C 143.784 484.125, 135.081 474.113, 131.063 468.750 C 127.044 463.387, 123.547 459, 123.292 459 C 123.036 459, 124.228 460.913, 125.941 463.250 M 354 469.697 C 354 470.263, 354.504 473.151, 355.119 476.114 C 355.735 479.076, 356.557 490.500, 356.947 501.500 L 357.655 521.500 357.822 505.500 C 357.970 491.251, 356.097 470.763, 354.499 469.166 C 354.225 468.891, 354 469.130, 354 469.697 M 337.208 502.468 C 338.962 506.025, 340.563 508.771, 340.764 508.569 C 341.211 508.122, 335.165 496, 334.495 496 C 334.233 496, 335.454 498.911, 337.208 502.468 M 164.254 504.678 C 166.080 506.748, 175 513.426, 175 512.723 C 175 512.502, 172.188 510.153, 168.750 507.504 C 165.313 504.855, 163.290 503.583, 164.254 504.678 M 341.113 510.599 C 343.551 517.525, 353.558 541, 354.072 541 C 354.992 541, 355.840 536.420, 356.427 528.279 L 356.916 521.500 355.954 528 C 354.093 540.582, 354.356 540.678, 347.974 525.104 C 344.742 517.217, 341.789 510.479, 341.412 510.132 C 341.035 509.784, 340.900 509.995, 341.113 510.599 M 384.013 517.750 C 374.864 527.970, 370.497 539.451, 367.563 561 C 366.702 567.325, 364.864 577.178, 363.479 582.897 C 362.093 588.615, 361.148 593.481, 361.377 593.711 C 362.182 594.515, 366.971 572.369, 368.930 558.781 C 371.917 538.072, 376.045 527.728, 385.532 517.176 C 388.091 514.329, 389.955 512, 389.673 512 C 389.391 512, 386.844 514.587, 384.013 517.750 M 164.365 534.750 C 162.577 537.386, 162.479 542.524, 162 658.500 C 161.554 766.522, 161.330 779.807, 159.913 782.362 L 158.326 785.225 151.718 771.612 C 148.083 764.126, 144.891 758, 144.625 758 C 143.793 758, 157.456 785.954, 158.299 785.978 C 158.738 785.990, 159.966 784.087, 161.027 781.750 C 162.897 777.629, 162.957 773.882, 162.978 658.485 C 163 541.364, 163.032 539.411, 165.002 535.735 C 167.353 531.349, 167.020 530.835, 164.365 534.750 M 659.486 672.500 C 659.486 745.650, 659.605 775.427, 659.750 738.672 C 659.895 701.917, 659.895 642.067, 659.750 605.672 C 659.604 569.277, 659.486 599.350, 659.486 672.500 M 176.073 544.635 C 174.006 547.263, 174 547.555, 174 652.576 C 174 710.494, 174.338 758.091, 174.750 758.346 C 175.162 758.601, 175.383 711.268, 175.241 653.163 C 174.983 548.206, 174.995 547.498, 177.021 544.758 C 179.623 541.239, 178.825 541.135, 176.073 544.635 M 193 544.617 C 211.597 559.381, 219.463 578.254, 221.922 614 C 223.415 635.722, 225.313 695.281, 224.742 702.519 C 224.132 710.259, 220.576 717.283, 214.356 723.035 C 207.130 729.718, 189.071 747.793, 183.771 753.648 C 181.207 756.480, 178.523 759.059, 177.805 759.381 C 176.908 759.782, 176.976 759.892, 178.020 759.732 C 178.856 759.605, 184.178 754.435, 189.848 748.244 C 195.517 742.053, 203.352 734.178, 207.258 730.744 C 217.428 721.802, 219.829 719.127, 222.709 713.519 C 226.188 706.747, 226.405 702.156, 225.102 663 C 222.814 594.219, 220.722 580.419, 209.855 562.372 C 206.164 556.243, 195.604 544.878, 191.872 543.020 C 190.464 542.318, 190.922 542.967, 193 544.617 M 211.151 545.584 C 213.281 548.874, 218.045 554.289, 218.446 553.876 C 218.646 553.669, 216.783 551.250, 214.305 548.500 C 211.828 545.750, 210.409 544.438, 211.151 545.584 M 322 561.279 C 322 561.471, 324.062 563.173, 326.583 565.062 C 329.103 566.951, 332.928 571.136, 335.083 574.362 C 339.130 580.423, 340.543 581.043, 336.977 575.194 C 333.969 570.261, 322 559.140, 322 561.279 M 270.704 575.100 C 272.466 577.192, 275.114 580.726, 276.587 582.952 C 278.060 585.178, 279.456 587, 279.689 587 C 280.728 587, 276.096 580.416, 272 576.070 C 269.525 573.444, 268.942 573.007, 270.704 575.100 M 240.987 580.514 C 239.105 582.517, 238.576 584.294, 238.381 589.264 L 238.136 595.500 238.916 589.247 C 239.809 582.091, 241.788 579.290, 246.355 578.716 L 249.500 578.320 246.424 578.160 C 244.293 578.049, 242.623 578.772, 240.987 580.514 M 260.650 586.937 C 275.128 602.857, 286.204 633.207, 286.402 657.500 C 286.506 670.307, 285.582 672.405, 276.941 678.974 C 273.124 681.877, 270 684.475, 270 684.748 C 270 685.021, 270.563 684.819, 271.250 684.298 C 287.322 672.127, 287.519 671.801, 287.402 657.500 C 287.207 633.627, 275.909 602.301, 262.543 588.578 C 259.220 585.166, 258.367 584.427, 260.650 586.937 M 340.199 591.161 C 340.089 595.394, 339.123 601.639, 338.040 605.118 C 336.963 608.581, 336.260 611.594, 336.480 611.813 C 336.699 612.032, 337.827 609.088, 338.986 605.271 C 340.542 600.148, 341.003 596.389, 340.746 590.915 L 340.397 583.500 340.199 591.161 M 284.430 597.250 C 290.177 609.634, 293.924 621.290, 296.065 633.446 C 297.039 638.976, 297.873 642.312, 297.918 640.860 C 298.185 632.258, 291.098 608.101, 284.412 594.826 C 279.414 584.900, 279.425 586.467, 284.430 597.250 M 237.424 645.500 C 237.484 685.247, 237.772 695.910, 238.826 697.500 L 240.151 699.500 239.358 697.500 C 238.923 696.400, 238.292 673, 237.957 645.500 L 237.348 595.500 237.424 645.500 M 357.222 604.722 C 356.030 608.389, 355.221 611.555, 355.425 611.758 C 355.628 611.961, 356.787 609.145, 358 605.500 C 359.213 601.855, 360.022 598.689, 359.798 598.464 C 359.573 598.240, 358.414 601.056, 357.222 604.722 M 333.189 617.549 C 330.176 623.749, 330.512 624.617, 333.615 618.652 C 335.003 615.986, 335.967 613.633, 335.757 613.424 C 335.548 613.215, 334.392 615.071, 333.189 617.549 M 352.133 618.133 C 350.949 620.983, 350.145 623.479, 350.347 623.680 C 350.549 623.882, 351.683 621.716, 352.867 618.867 C 354.051 616.017, 354.855 613.521, 354.653 613.320 C 354.451 613.118, 353.317 615.284, 352.133 618.133 M 326.513 630.975 C 322.037 639.863, 321.970 641.495, 326.420 633.238 C 330.146 626.326, 331.168 624, 330.481 624 C 330.230 624, 328.444 627.139, 326.513 630.975 M 343.215 637.543 C 339.802 644.394, 337.229 650, 337.497 650 C 338.160 650, 350.212 625.879, 349.771 625.437 C 349.578 625.244, 346.628 630.692, 343.215 637.543 M 298.193 656.139 C 298.028 666.957, 298.252 669.053, 299.750 670.686 C 300.712 671.736, 301.050 671.944, 300.500 671.149 C 299.950 670.354, 299.249 663.807, 298.943 656.601 L 298.386 643.500 298.193 656.139 M 316.125 653.354 C 312.883 661.141, 309.596 673.368, 310.972 672.517 C 311.411 672.246, 312.060 670.107, 312.414 667.762 C 312.769 665.418, 314.599 659.690, 316.480 655.033 C 318.361 650.377, 319.749 646.416, 319.565 646.232 C 319.381 646.047, 317.833 649.252, 316.125 653.354 M 333.951 655.097 C 331.665 659.576, 331.947 662.064, 334.719 661.884 C 336.388 661.775, 336.390 661.739, 334.750 661.311 C 332.510 660.725, 332.549 659.805, 335.020 654.960 C 336.132 652.782, 336.816 651, 336.541 651 C 336.266 651, 335.100 652.844, 333.951 655.097 M 371.233 683 C 394.736 708.006, 399.467 712.835, 389.891 702.046 C 385.276 696.846, 375.489 686.496, 368.143 679.046 C 356.061 666.794, 356.357 667.172, 371.233 683 M 331.241 680.250 C 330.082 681.487, 328.666 683.733, 328.095 685.240 C 326.260 690.085, 323.995 706.759, 324.157 714.239 C 324.310 721.328, 324.330 721.264, 325.026 711.500 C 326.322 693.290, 328.382 684.369, 332.241 680.250 C 333.400 679.013, 334.124 678, 333.849 678 C 333.574 678, 332.400 679.013, 331.241 680.250 M 358.538 686.031 C 361.817 689.622, 364.704 692.418, 364.953 692.244 C 365.203 692.069, 362.520 689.131, 358.992 685.713 L 352.576 679.500 358.538 686.031 M 303.696 691.956 C 307.637 694.359, 310.120 698.030, 311.056 702.836 C 311.675 706.012, 311.785 706.127, 311.885 703.700 C 311.948 702.161, 311.341 699.627, 310.536 698.069 C 308.910 694.925, 303.496 689.998, 301.673 690.004 C 301.028 690.006, 301.938 690.884, 303.696 691.956 M 366.625 694.223 C 367.106 695.044, 371.961 700.392, 377.413 706.107 C 382.865 711.823, 385.602 714.475, 383.495 712 C 377.949 705.486, 365.596 692.468, 366.625 694.223 M 310.804 710.141 C 310.450 712.144, 308.553 717.319, 306.588 721.641 C 304.623 725.964, 303.672 728.646, 304.476 727.603 C 306.964 724.370, 312.138 710.969, 311.783 708.676 C 311.543 707.126, 311.262 707.548, 310.804 710.141 M 407.424 723 C 412.827 729.325, 423.320 742.600, 430.743 752.500 C 443.853 769.984, 448.794 776.153, 443.957 769 C 434.536 755.068, 404.052 716.720, 399.414 712.966 C 398.418 712.160, 402.022 716.675, 407.424 723 M 391.919 722.750 C 394.879 726.188, 397.499 729, 397.743 729 C 398.405 729, 390.336 719.514, 388.300 717.898 C 387.331 717.129, 388.960 719.313, 391.919 722.750 M 325.054 723.145 C 324.981 725.364, 328.718 737.127, 330.090 739 C 330.976 740.210, 331.045 740.114, 330.447 738.500 C 330.039 737.400, 328.671 733.125, 327.406 729 C 326.142 724.875, 325.083 722.240, 325.054 723.145 M 220 735.353 C 199.624 753.221, 180.791 775.776, 170.610 794.500 C 167.451 800.310, 167.929 799.652, 178.144 784.122 C 190.372 765.531, 205.073 749.086, 224.500 732.267 C 227.800 729.410, 230.275 727.061, 230 727.047 C 229.725 727.033, 225.225 730.771, 220 735.353 M 103.768 730.725 C 105.565 730.947, 108.265 730.943, 109.768 730.715 C 111.271 730.486, 109.800 730.304, 106.500 730.310 C 103.200 730.315, 101.971 730.502, 103.768 730.725 M 299.479 734.250 C 297.946 736.587, 292.824 742.541, 288.096 747.480 C 283.368 752.418, 281.750 754.443, 284.500 751.980 C 292.187 745.093, 304.706 730, 302.731 730 C 302.475 730, 301.012 731.913, 299.479 734.250 M 400.361 733 C 401.904 734.925, 407.023 741.675, 411.736 748 C 420.937 760.347, 425.823 766.037, 419.465 757 C 412.682 747.359, 400.986 732.231, 399.241 730.842 C 398.313 730.104, 398.817 731.075, 400.361 733 M 90.437 736.066 L 87.500 739.132 87.500 864.316 L 87.500 989.500 89.797 1000 C 92.360 1011.713, 99.167 1032.628, 102.164 1038 C 104.387 1041.982, 104.092 1041.020, 99.254 1028.500 C 94.744 1016.829, 90.491 999.957, 89.045 988 C 88.223 981.201, 87.982 944.477, 88.198 858.816 L 88.500 739.131 91.437 736.066 C 93.052 734.379, 94.149 733, 93.874 733 C 93.599 733, 92.052 734.380, 90.437 736.066 M 121.500 734.663 C 124.055 737.083, 130.333 741.177, 128.817 739.435 C 127.891 738.371, 125.641 736.649, 123.817 735.608 C 121.993 734.567, 120.950 734.142, 121.500 734.663 M 135.683 746.525 C 138.333 749.839, 141.307 753.664, 142.294 755.025 C 144.052 757.451, 144.054 757.439, 142.400 754.372 C 141.472 752.651, 138.497 748.826, 135.790 745.872 L 130.867 740.500 135.683 746.525 M 100.638 747.250 C 99.467 749.120, 99.153 763.087, 98.778 830 C 98.510 877.587, 98.612 895.781, 99.027 874.500 C 99.413 854.700, 99.790 818.463, 99.864 793.973 C 99.982 755.439, 100.210 749.146, 101.557 747.223 C 102.413 746, 102.873 745, 102.580 745 C 102.286 745, 101.412 746.013, 100.638 747.250 M 122.502 752.340 C 130.171 760.133, 135.709 768.479, 139.650 778.177 C 142.468 785.113, 145.861 799.402, 146.138 805.500 C 146.308 809.231, 146.347 809.281, 146.724 806.241 C 147.727 798.150, 141.811 778.385, 134.895 766.719 C 131 760.151, 120.343 747.789, 117.060 746.032 C 116.172 745.557, 118.622 748.396, 122.502 752.340 M 334.630 748 C 335.542 749.925, 343.578 763.875, 352.487 779 C 380.351 826.305, 397.359 858.757, 406.581 882.216 C 408.682 887.560, 410.573 891.760, 410.784 891.549 C 411.475 890.858, 403.892 872.810, 396.057 856.500 C 386.275 836.137, 374.583 814.854, 352.574 777.347 C 334.096 745.858, 331.959 742.362, 334.630 748 M 428.106 770.750 C 432.991 778.078, 436.364 782.451, 434.470 779 C 432.645 775.676, 423.906 763, 423.439 763 C 423.164 763, 425.264 766.487, 428.106 770.750 M 324.206 804.250 L 324.500 843.500 327.636 850 C 329.362 853.575, 331.492 857.400, 332.371 858.500 C 333.250 859.600, 332.210 857.053, 330.059 852.841 C 327.909 848.628, 325.871 843.228, 325.531 840.841 C 325.190 838.453, 325.044 820.750, 325.206 801.500 L 325.500 766.500 331.859 775.750 C 335.357 780.837, 338.439 785, 338.707 785 C 339.266 785, 337.568 782.351, 330.500 772.194 C 327.750 768.243, 325.143 765.008, 324.706 765.005 C 324.270 765.002, 324.045 782.663, 324.206 804.250 M 454.652 786.250 C 462.228 797.943, 466.957 804.561, 464.478 800 C 462.452 796.273, 447.014 773, 446.567 773 C 446.292 773, 449.930 778.962, 454.652 786.250 M 288.453 775.762 C 289.828 777.417, 290.533 780.502, 291.082 787.262 L 291.833 796.500 291.607 787.218 C 291.403 778.852, 291.144 777.718, 288.978 775.718 L 286.574 773.500 288.453 775.762 M 261.073 781.553 C 257.363 784.905, 251 793.710, 251 795.493 C 251 795.942, 252.734 793.628, 254.853 790.349 C 256.972 787.071, 260.449 782.951, 262.580 781.194 C 264.712 779.437, 266.129 778, 265.731 778 C 265.332 778, 263.236 779.599, 261.073 781.553 M 233.849 787.750 C 228.120 793.790, 219.964 805, 221.299 805 C 221.529 805, 223.433 802.413, 225.531 799.250 C 227.629 796.087, 231.811 790.913, 234.825 787.750 C 237.839 784.587, 240.079 782, 239.804 782 C 239.529 782, 236.850 784.587, 233.849 787.750 M 350.831 804.400 C 364.383 825.790, 366.099 828.327, 362.396 821.500 C 358.865 814.989, 341.032 787.138, 339.977 786.486 C 339.529 786.209, 344.414 794.271, 350.831 804.400 M 442.524 792.566 C 443.453 794.252, 445.103 796.727, 446.190 798.066 L 448.167 800.500 446.476 797.434 C 445.547 795.748, 443.897 793.273, 442.810 791.934 L 440.833 789.500 442.524 792.566 M 249.078 800.656 C 248.491 802.770, 248.009 806.277, 248.006 808.448 C 247.999 813.410, 251.202 838.131, 251.777 837.556 C 252.012 837.322, 251.390 830.597, 250.395 822.612 C 248.952 811.037, 248.808 807.020, 249.684 802.797 C 250.983 796.532, 250.600 795.177, 249.078 800.656 M 292.044 797.300 C 292.020 797.739, 292.612 799.314, 293.361 800.800 C 294.109 802.285, 295.512 806.875, 296.478 811 C 297.445 815.125, 299.986 822.447, 302.126 827.271 C 306.860 837.941, 309.590 847.733, 310.964 858.974 C 311.608 864.241, 312 901.375, 312 957.101 C 312 1041.315, 312.106 1046.835, 313.750 1048.079 C 315.239 1049.206, 315.313 1049.194, 314.250 1048.002 C 313.270 1046.902, 313 1027.270, 313 957.024 C 313 901.351, 312.608 864.240, 311.964 858.974 C 310.590 847.733, 307.860 837.941, 303.126 827.271 C 300.986 822.447, 298.445 815.125, 297.478 811 C 295.960 804.520, 292.173 794.972, 292.044 797.300 M 164.740 805.729 C 161.344 813.409, 159.750 821.290, 160.233 828 L 160.630 833.500 160.815 827.144 C 161.029 819.802, 163.279 810.333, 166.146 804.713 C 167.243 802.564, 167.949 800.615, 167.716 800.382 C 167.483 800.149, 166.144 802.555, 164.740 805.729 M 449.206 803.250 C 449.996 804.487, 452.362 808.313, 454.463 811.750 C 456.565 815.188, 458.472 818, 458.701 818 C 459.206 818, 458.892 817.437, 453.247 808.250 C 450.797 804.263, 448.563 801, 448.281 801 C 448 801, 448.416 802.013, 449.206 803.250 M 467.024 805.750 C 468.247 807.813, 470.584 811.862, 472.219 814.750 C 475.113 819.863, 477.240 822.244, 474.898 817.750 C 472.258 812.683, 465.739 802, 465.287 802 C 465.021 802, 465.802 803.688, 467.024 805.750 M 217.459 811.689 C 214.517 818.342, 210.572 830.906, 211.222 831.555 C 211.469 831.802, 212.445 829.219, 213.392 825.816 C 214.338 822.412, 216.417 816.561, 218.012 812.813 C 219.606 809.066, 220.700 806, 220.443 806 C 220.185 806, 218.843 808.560, 217.459 811.689 M 657.756 930 C 657.346 997.375, 656.601 1056.325, 656.099 1061 C 655.597 1065.675, 654.943 1072.425, 654.646 1076 C 654.146 1082.023, 654.212 1081.876, 655.543 1074 C 657.731 1061.050, 659.084 983.751, 658.772 889.500 L 658.500 807.500 657.756 930 M 147.663 829.500 C 149.074 884.102, 150.841 924.671, 151.910 927 L 153.056 929.500 152.456 927 C 152.125 925.625, 151.206 906.050, 150.412 883.500 C 149.619 860.950, 148.560 835.075, 148.058 826 L 147.147 809.500 147.663 829.500 M 459.305 819.750 C 459.538 820.163, 462.433 825.225, 465.738 831 C 469.044 836.775, 473.610 845.212, 475.885 849.750 C 478.161 854.288, 480.247 858, 480.522 858 C 480.797 858, 479.159 854.288, 476.881 849.750 C 471.921 839.870, 460.028 819, 459.357 819 C 459.096 819, 459.072 819.337, 459.305 819.750 M 229.951 824.097 C 228.801 826.350, 228.046 828.380, 228.274 828.607 C 228.501 828.834, 229.508 827.199, 230.512 824.974 C 231.782 822.156, 232.585 821.318, 233.153 822.213 C 233.755 823.162, 233.973 823.040, 233.985 821.750 C 234.011 818.736, 232.126 819.832, 229.951 824.097 M 235.127 830 C 235.081 832.204, 242.782 868.781, 242.900 866.919 C 243 865.339, 236.350 831.390, 235.571 829.500 C 235.344 828.950, 235.144 829.175, 235.127 830 M 224.544 838.052 C 223.145 842.480, 222.024 846.868, 222.054 847.802 C 222.083 848.736, 223.124 846.125, 224.367 842 C 225.610 837.875, 226.967 833.487, 227.381 832.250 C 227.796 831.013, 227.899 830, 227.611 830 C 227.323 830, 225.942 833.623, 224.544 838.052 M 489.448 847.250 C 497.442 863.865, 507.194 887.169, 512.040 901.237 C 513.316 904.942, 514.533 907.800, 514.745 907.589 C 516.495 905.839, 484.145 830, 481.648 830 C 481.373 830, 484.883 837.763, 489.448 847.250 M 209.748 835.516 C 209.421 837.157, 208.910 841.425, 208.613 845 C 208.113 851.011, 208.181 850.860, 209.505 843 C 210.850 835.017, 211.045 829.015, 209.748 835.516 M 161.703 841 C 162.009 845.125, 162.427 848.688, 162.630 848.917 C 163.327 849.702, 162.885 841.502, 162.015 837.500 C 161.370 834.535, 161.289 835.440, 161.703 841 M 252.145 841 C 251.928 845.261, 258.848 888.922, 260.032 890.761 C 261.032 892.315, 261.082 892.287, 260.501 890.500 C 260.143 889.400, 258.337 878.375, 256.486 866 C 254.636 853.625, 252.931 842.375, 252.697 841 L 252.272 838.500 252.145 841 M 380.214 855.459 C 383.074 861.212, 385.575 865.759, 385.769 865.564 C 386.212 865.121, 376.161 845, 375.497 845 C 375.230 845, 377.353 849.707, 380.214 855.459 M 163.221 863.603 C 163.100 871.360, 162.792 880.585, 162.538 884.103 L 162.076 890.500 163.049 884.500 C 163.583 881.200, 163.891 871.975, 163.732 864 L 163.442 849.500 163.221 863.603 M 220.681 853.510 C 220.318 855.704, 220.072 858.850, 220.133 860.500 C 220.194 862.150, 220.638 860.800, 221.119 857.500 C 222.099 850.789, 221.712 847.266, 220.681 853.510 M 206.487 870.487 C 206.083 880.717, 205.973 889.307, 206.242 889.576 C 206.511 889.845, 207.060 881.693, 207.462 871.462 C 207.863 861.230, 207.973 852.640, 207.706 852.373 C 207.440 852.106, 206.891 860.258, 206.487 870.487 M 481.087 859.100 C 481.039 859.430, 483.677 865.280, 486.950 872.100 C 490.222 878.920, 492.908 884.050, 492.918 883.500 C 492.940 882.356, 481.219 858.185, 481.087 859.100 M 338.918 868.250 C 341.688 872.237, 345.796 877.525, 348.046 880 C 351.075 883.331, 350.732 882.682, 346.727 877.500 C 343.752 873.650, 339.874 868.362, 338.110 865.750 C 336.347 863.138, 334.674 861, 334.392 861 C 334.111 861, 336.147 864.263, 338.918 868.250 M 219.389 876.500 C 219.390 883.650, 219.550 886.444, 219.742 882.708 C 219.935 878.973, 219.934 873.123, 219.739 869.708 C 219.545 866.294, 219.387 869.350, 219.389 876.500 M 386.082 867.129 C 386.037 867.475, 387.175 870.325, 388.611 873.461 C 390.047 876.598, 393.628 885.540, 396.569 893.332 C 399.510 901.124, 401.935 906.971, 401.958 906.325 C 402.061 903.450, 386.389 864.759, 386.082 867.129 M 243.999 874.583 C 243.997 876.797, 249.336 901.997, 249.725 901.609 C 250.181 901.152, 245.081 874.797, 244.398 874.083 C 244.179 873.854, 244 874.079, 243.999 874.583 M 325.200 881.200 C 324.286 882.114, 324 901.869, 324 964.009 C 324 1027.761, 323.726 1045.974, 322.750 1047.247 C 322.063 1048.143, 320.150 1049.061, 318.500 1049.288 L 315.500 1049.700 318.628 1049.850 C 324.769 1050.144, 324.453 1054.395, 325 964.097 C 325.395 898.913, 325.764 881.500, 326.751 881.500 C 327.439 881.500, 335.089 888.174, 343.751 896.331 L 359.500 911.163 343.520 895.581 C 334.731 887.012, 327.283 880, 326.970 880 C 326.656 880, 325.860 880.540, 325.200 881.200 M 357.071 890.609 C 360.057 893.969, 362.704 896.541, 362.953 896.323 C 363.202 896.106, 360.759 893.356, 357.524 890.214 L 351.643 884.500 357.071 890.609 M 493.084 885.167 C 493.038 885.534, 493.842 887.799, 494.872 890.200 C 498.250 898.082, 505.321 918.290, 508.623 929.500 C 510.405 935.550, 511.894 939.892, 511.932 939.149 C 512.174 934.348, 493.594 881.131, 493.084 885.167 M 285.600 887.765 C 289.440 890.329, 289.273 894.406, 285.122 899.483 C 283.591 901.355, 283.601 901.387, 285.316 900.056 C 286.315 899.280, 287.789 897.375, 288.592 895.823 C 289.881 893.330, 289.870 892.649, 288.500 890 C 287.647 888.350, 286.398 887.007, 285.724 887.015 C 284.870 887.026, 284.833 887.253, 285.600 887.765 M 220.074 893.583 C 220.115 895.737, 220.533 899.525, 221.003 902 C 221.646 905.383, 221.721 904.514, 221.307 898.500 C 220.726 890.055, 219.949 886.955, 220.074 893.583 M 161.470 900.091 C 161.779 908.551, 165.301 925.033, 166.535 923.799 C 166.751 923.583, 166.018 920.375, 164.907 916.670 C 163.795 912.966, 162.488 905.562, 162.002 900.217 L 161.118 890.500 161.470 900.091 M 207.140 896.651 C 206.984 903.497, 210.100 923.050, 212.454 930 C 214.087 934.820, 214.066 934.677, 210.927 919.500 C 209.789 914, 208.503 905.225, 208.069 900 C 207.381 891.716, 207.262 891.287, 207.140 896.651 M 411.160 893.500 C 411.136 894.050, 411.963 897.650, 413 901.500 C 414.037 905.350, 414.883 907.375, 414.881 906 C 414.878 903.609, 411.253 891.432, 411.160 893.500 M 364.113 897.750 C 364.175 898.163, 366.988 900.961, 370.363 903.970 L 376.500 909.439 370.531 903.220 C 364.456 896.889, 363.914 896.427, 364.113 897.750 M 266.969 916.750 C 254.253 929.681, 240.079 944.833, 247.091 938 C 253.627 931.631, 282.278 902, 281.900 902 C 281.666 902, 274.947 908.638, 266.969 916.750 M 250.547 906.197 C 251.241 911.092, 248.950 916.382, 243.703 922 L 239.500 926.500 244.245 922.047 C 250.159 916.496, 252.588 910.767, 251.083 905.917 L 250.023 902.500 250.547 906.197 M 222.537 911.500 C 223.445 920.719, 225.170 928.851, 226.607 930.683 C 227.900 932.331, 227.934 932.267, 226.978 930 C 226.399 928.625, 225.052 922.775, 223.985 917 C 222.918 911.225, 222.267 908.750, 222.537 911.500 M 402.056 908.628 C 402.025 909.248, 402.675 911.371, 403.500 913.346 C 405.481 918.088, 405.396 921.872, 403.250 924.421 C 401.502 926.498, 401.502 926.498, 403.750 924.595 C 406.523 922.247, 406.604 918.205, 404 912 C 402.961 909.525, 402.087 908.008, 402.056 908.628 M 415.433 920.500 C 415.470 927.100, 415.186 934.975, 414.802 938 C 414.274 942.158, 414.339 942.768, 415.065 940.500 C 416.551 935.858, 417.264 920.118, 416.264 914 C 415.488 909.248, 415.375 910.132, 415.433 920.500 M 515 909.164 C 515 909.437, 516.763 915.539, 518.917 922.723 C 529.028 956.441, 533.944 984.289, 535.028 1014 L 535.812 1035.500 535.498 1013.500 C 535.149 989.064, 533.101 974.025, 526.419 946.811 C 521.763 927.848, 515 905.552, 515 909.164 M 99.448 943.500 C 99.447 961.650, 99.582 969.216, 99.748 960.314 C 99.913 951.411, 99.914 936.561, 99.749 927.314 C 99.583 918.066, 99.448 925.350, 99.448 943.500 M 367.500 919 C 371.874 923.400, 375.678 927, 375.953 927 C 376.228 927, 372.874 923.400, 368.500 919 C 364.126 914.600, 360.322 911, 360.047 911 C 359.772 911, 363.126 914.600, 367.500 919 M 167 925.358 C 167 926.485, 173.701 939.329, 175.421 941.500 C 176.293 942.600, 174.906 939.450, 172.340 934.500 C 167.366 924.908, 167 924.281, 167 925.358 M 236.580 927.911 C 235.629 928.962, 233.422 930.527, 231.675 931.388 C 229.929 932.250, 229.213 932.965, 230.083 932.977 C 231.535 932.998, 240.262 926.137, 238.905 926.042 C 238.578 926.019, 237.532 926.860, 236.580 927.911 M 153 930.731 C 153 931.360, 155.915 936.065, 159.478 941.187 C 170.459 956.972, 180.531 973.079, 187.069 985.310 C 190.509 991.745, 193.475 996.859, 193.660 996.674 C 194.549 995.785, 179.591 969.759, 170.133 955.737 C 164.285 947.068, 158.037 937.638, 156.250 934.781 C 154.463 931.925, 153 930.103, 153 930.731 M 214.496 937.251 C 215.958 944.666, 215.994 948.940, 214.638 953.999 C 212.917 960.419, 213.212 961.838, 215.120 956.317 C 216.714 951.706, 216.708 940.456, 215.110 937 L 213.954 934.500 214.496 937.251 M 394.494 937.776 C 395.719 939.233, 396.723 942.339, 397.097 945.824 L 397.706 951.500 397.853 946.266 C 397.979 941.797, 397.598 940.620, 395.250 938.218 C 393.738 936.670, 393.397 936.471, 394.494 937.776 M 241.920 943.750 C 236.022 950.357, 234.685 952, 235.204 952 C 235.508 952, 237.872 949.525, 240.456 946.500 C 245.241 940.899, 246.388 938.744, 241.920 943.750 M 178.524 946.566 C 179.453 948.252, 181.103 950.727, 182.190 952.066 L 184.167 954.500 182.476 951.434 C 181.547 949.748, 179.897 947.273, 178.810 945.934 L 176.833 943.500 178.524 946.566 M 411.653 949.433 C 410.715 952.407, 405.910 962.836, 400.974 972.607 C 396.038 982.378, 392 990.829, 392 991.386 C 392 991.944, 396.016 984.461, 400.925 974.759 C 409.563 957.684, 414.778 945.445, 413.822 944.488 C 413.566 944.233, 412.590 946.458, 411.653 949.433 M 514.541 952 C 514.840 953.925, 515.966 960.607, 517.042 966.849 C 518.119 973.092, 519.067 979.617, 519.150 981.349 C 519.291 984.313, 519.324 984.340, 519.712 981.791 C 520.147 978.936, 516.662 956.617, 514.983 951.500 C 514.010 948.537, 514.004 948.543, 514.541 952 M 392.825 960.084 C 390.804 964.438, 389.364 968, 389.625 968 C 390.298 968, 397.337 953.004, 396.879 952.547 C 396.671 952.339, 394.846 955.731, 392.825 960.084 M 229.730 958.750 C 224.127 966.095, 216.775 977, 217.425 977 C 217.700 977, 219.820 974.188, 222.135 970.750 C 224.450 967.313, 228.318 961.913, 230.730 958.750 C 233.143 955.587, 234.892 953, 234.617 953 C 234.342 953, 232.143 955.587, 229.730 958.750 M 186.631 959.250 C 190.103 965.040, 196.081 974, 196.472 974 C 196.739 974, 194.672 970.400, 191.879 966 C 189.085 961.600, 186.593 958, 186.341 958 C 186.088 958, 186.219 958.563, 186.631 959.250 M 210.890 963.250 C 208.278 968.233, 203.673 973.033, 200.673 973.901 C 197.949 974.690, 197.840 974.832, 199.905 974.910 C 201.486 974.969, 203.624 973.618, 206.146 970.967 C 209.686 967.246, 213.706 961, 212.561 961 C 212.291 961, 211.539 962.013, 210.890 963.250 M 385.951 973.097 C 384.801 975.350, 384.032 977.365, 384.242 977.575 C 384.451 977.785, 385.602 975.941, 386.798 973.478 C 389.524 967.869, 388.787 967.537, 385.951 973.097 M 24.609 1019 C 24.803 1044.025, 25.398 1066.750, 25.931 1069.500 C 26.864 1074.316, 26.879 1074.261, 26.321 1068 C 26.003 1064.425, 25.408 1041.700, 24.999 1017.500 L 24.256 973.500 24.609 1019 M 100.286 981.500 C 100.294 984.250, 100.488 985.256, 100.718 983.736 C 100.947 982.216, 100.941 979.966, 100.704 978.736 C 100.467 977.506, 100.279 978.750, 100.286 981.500 M 210.967 986.554 C 208.126 991.259, 204.833 996.011, 203.650 997.116 C 201.972 998.682, 201.886 998.976, 203.257 998.452 C 204.224 998.083, 207.405 993.892, 210.327 989.140 C 217.359 977.702, 217.190 978, 216.626 978 C 216.356 978, 213.809 981.849, 210.967 986.554 M 378.731 991.202 C 376.253 997.966, 373.952 1005.075, 373.618 1007 C 373.284 1008.925, 374.294 1006.675, 375.862 1002 C 377.431 997.325, 379.909 990.393, 381.370 986.596 C 382.831 982.799, 383.848 979.515, 383.631 979.298 C 383.414 979.081, 381.209 984.438, 378.731 991.202 M 520.310 990.500 C 520.315 993.800, 520.502 995.029, 520.725 993.232 C 520.947 991.435, 520.943 988.735, 520.715 987.232 C 520.486 985.729, 520.304 987.200, 520.310 990.500 M 101.585 992 C 102.341 999.855, 106.527 1015.787, 110.701 1026.692 C 112.671 1031.839, 114.453 1035.880, 114.660 1035.673 C 114.867 1035.466, 113.491 1031.292, 111.602 1026.398 C 108.036 1017.161, 104.795 1005.533, 102.431 993.500 C 101.154 987.004, 101.094 986.896, 101.585 992 M 388.609 999.714 C 387.174 1003.470, 386.026 1006.983, 386.058 1007.521 C 386.091 1008.060, 387.432 1005.154, 389.040 1001.065 C 390.647 996.975, 391.795 993.462, 391.591 993.257 C 391.386 993.053, 390.044 995.958, 388.609 999.714 M 521.434 1021.500 C 521.433 1035.250, 521.574 1041.014, 521.747 1034.308 C 521.919 1027.603, 521.920 1016.353, 521.748 1009.308 C 521.576 1002.264, 521.434 1007.750, 521.434 1021.500 M 384.091 1013.091 C 383.415 1015.348, 383.045 1017.379, 383.270 1017.604 C 383.495 1017.829, 384.233 1016.166, 384.909 1013.909 C 385.585 1011.652, 385.955 1009.621, 385.730 1009.396 C 385.505 1009.171, 384.767 1010.834, 384.091 1013.091 M 370.099 1019.806 C 368.945 1024.724, 368.042 1029.367, 368.094 1030.124 C 368.146 1030.881, 369.274 1027.041, 370.602 1021.591 C 371.929 1016.141, 372.831 1011.498, 372.607 1011.273 C 372.382 1011.049, 371.254 1014.889, 370.099 1019.806 M 380.640 1025.683 C 376.087 1045.704, 374.092 1071.303, 375.862 1087 C 376.731 1094.703, 376.772 1094.234, 376.296 1082 C 375.669 1065.872, 377.162 1047.839, 380.475 1031.521 C 383.082 1018.681, 383.203 1014.417, 380.640 1025.683 M 366.500 1037 C 366.112 1039.820, 366.006 1042.339, 366.264 1042.597 C 366.522 1042.856, 367.041 1040.749, 367.417 1037.917 C 367.792 1035.084, 367.899 1032.565, 367.653 1032.319 C 367.407 1032.073, 366.888 1034.180, 366.500 1037 M 533.684 1047.881 C 533.268 1054.691, 533.125 1060.458, 533.364 1060.697 C 533.980 1061.314, 535.284 1041.017, 534.821 1038 C 534.611 1036.625, 534.099 1041.072, 533.684 1047.881 M 115 1037.497 C 115 1039.227, 126.459 1059.907, 132.712 1069.460 C 140.522 1081.395, 148.116 1091.424, 158.362 1103.340 C 166.363 1112.644, 187.426 1134.928, 184.979 1131.500 C 184.194 1130.400, 179.870 1125.675, 175.370 1121 C 152.111 1096.836, 133.371 1071.616, 121.345 1048.298 C 115.545 1037.052, 115 1036.124, 115 1037.497 M 10.320 1044 C 10.320 1047.575, 10.502 1049.037, 10.723 1047.250 C 10.945 1045.463, 10.945 1042.537, 10.723 1040.750 C 10.502 1038.963, 10.320 1040.425, 10.320 1044 M 104 1042.353 C 104 1043.441, 112.965 1061, 113.520 1061 C 113.968 1061, 105.323 1043.101, 104.385 1042.083 C 104.173 1041.854, 104 1041.976, 104 1042.353 M 364.639 1050.716 C 363.766 1060.163, 362.899 1081.713, 363.440 1080.500 C 364.039 1079.157, 366.136 1044.803, 365.649 1044.315 C 365.438 1044.104, 364.983 1046.985, 364.639 1050.716 M 520.343 1054.500 C 520.346 1058.900, 520.522 1060.576, 520.733 1058.224 C 520.945 1055.872, 520.942 1052.272, 520.727 1050.224 C 520.512 1048.176, 520.339 1050.100, 520.343 1054.500 M 11.586 1058.500 C 12.853 1078.695, 21.089 1116.306, 28.994 1138 C 35.578 1156.066, 56.136 1197, 58.626 1197 C 58.897 1197, 58.920 1196.662, 58.678 1196.250 C 58.436 1195.838, 56.314 1192.350, 53.964 1188.500 C 47.199 1177.422, 35.572 1153.006, 30.475 1139.176 C 22.625 1117.877, 16.328 1090.556, 12.458 1061 C 11.165 1051.123, 11.113 1050.975, 11.586 1058.500 M 643.631 1059.882 C 643.246 1064.492, 643.130 1068.463, 643.373 1068.707 C 643.999 1069.332, 645.314 1054.442, 644.776 1052.830 C 644.531 1052.098, 644.016 1055.272, 643.631 1059.882 M 117.094 1067.500 C 128.919 1089.665, 156.753 1123.792, 181.100 1145.976 C 188.377 1152.607, 186.378 1150.355, 174.441 1138.476 C 150.939 1115.089, 135.488 1096.102, 121.632 1073.585 C 114.307 1061.681, 113.193 1060.188, 117.094 1067.500 M 530.528 1082.322 C 529.528 1093.491, 528.899 1103.196, 529.129 1103.886 C 529.359 1104.577, 530.382 1095.643, 531.402 1084.033 C 532.423 1072.423, 533.052 1062.719, 532.802 1062.468 C 532.551 1062.218, 531.528 1071.152, 530.528 1082.322 M 519.310 1068.500 C 519.315 1071.800, 519.502 1073.029, 519.725 1071.232 C 519.947 1069.435, 519.943 1066.735, 519.715 1065.232 C 519.486 1063.729, 519.304 1065.200, 519.310 1068.500 M 27.114 1077.119 C 26.898 1082.090, 33.737 1116.596, 34.739 1115.594 C 34.961 1115.372, 33.984 1110.021, 32.566 1103.702 C 31.149 1097.383, 29.368 1088.228, 28.609 1083.357 C 27.849 1078.486, 27.176 1075.679, 27.114 1077.119 M 516.545 1095.045 C 515.547 1106.056, 514.940 1115.273, 515.196 1115.529 C 515.452 1115.785, 516.478 1106.987, 517.477 1095.977 C 518.476 1084.968, 519.084 1075.750, 518.827 1075.494 C 518.570 1075.237, 517.544 1084.035, 516.545 1095.045 M 639.636 1086.136 C 638.678 1091.136, 638.084 1095.417, 638.316 1095.649 C 638.548 1095.881, 639.531 1091.989, 640.500 1087 C 641.469 1082.011, 642.063 1077.730, 641.821 1077.487 C 641.578 1077.244, 640.595 1081.136, 639.636 1086.136 M 651.249 1094.820 C 650.011 1101.434, 647.415 1112.346, 645.480 1119.070 C 643.545 1125.793, 642.133 1131.466, 642.343 1131.676 C 643.620 1132.953, 654.408 1088.684, 653.793 1084.693 C 653.632 1083.649, 652.487 1088.207, 651.249 1094.820 M 364.559 1093 C 364.867 1101.477, 366.938 1116.395, 367.701 1115.633 C 367.922 1115.411, 367.410 1110.341, 366.563 1104.365 C 365.717 1098.389, 364.850 1091.475, 364.637 1089 C 364.424 1086.525, 364.389 1088.325, 364.559 1093 M 377.081 1098.374 C 376.966 1102.447, 381.533 1124.372, 383.961 1131.407 C 386.570 1138.964, 386.531 1141.515, 383.777 1143.443 C 382.555 1144.299, 382.019 1145, 382.586 1145 C 383.154 1145, 384.437 1144.401, 385.438 1143.669 C 387.667 1142.039, 387.363 1139.127, 383.644 1126.500 C 382.187 1121.550, 380.132 1112.550, 379.078 1106.500 C 378.024 1100.450, 377.125 1096.793, 377.081 1098.374 M 636.108 1102.410 C 635.440 1105.393, 633.141 1113.368, 630.998 1120.134 C 628.855 1126.899, 627.275 1132.608, 627.487 1132.821 C 627.913 1133.246, 635.220 1110.321, 637.084 1102.712 C 637.729 1100.078, 638.046 1097.713, 637.789 1097.456 C 637.532 1097.198, 636.775 1099.428, 636.108 1102.410 M 527.200 1122 C 526.485 1131.075, 525.022 1147.048, 523.950 1157.495 C 522.877 1167.942, 522.060 1177.617, 522.134 1178.995 C 522.326 1182.589, 524.493 1163.292, 526.985 1135.795 C 528.167 1122.757, 528.991 1110.607, 528.817 1108.795 C 528.643 1106.983, 527.915 1112.925, 527.200 1122 M 35.152 1118 C 35.152 1118.825, 35.759 1121.075, 36.500 1123 C 37.241 1124.925, 37.848 1125.825, 37.848 1125 C 37.848 1124.175, 37.241 1121.925, 36.500 1120 C 35.759 1118.075, 35.152 1117.175, 35.152 1118 M 368.109 1118 C 368.070 1118.825, 368.665 1121.750, 369.430 1124.500 C 370.195 1127.250, 370.853 1128.825, 370.891 1128 C 370.930 1127.175, 370.335 1124.250, 369.570 1121.500 C 368.805 1118.750, 368.147 1117.175, 368.109 1118 M 513.029 1132.529 C 512.339 1141.097, 511.985 1148.319, 512.244 1148.578 C 512.503 1148.836, 513.280 1142.038, 513.971 1133.471 C 514.661 1124.903, 515.015 1117.681, 514.756 1117.422 C 514.497 1117.164, 513.720 1123.962, 513.029 1132.529 M 371.091 1130.568 C 370.853 1133.355, 374.225 1141.880, 376.240 1143.586 L 378.500 1145.500 376.673 1143.336 C 375.668 1142.146, 374.022 1138.546, 373.014 1135.336 C 372.007 1132.126, 371.141 1129.981, 371.091 1130.568 M 637.556 1143.256 C 635.472 1148.890, 631.151 1159.013, 627.955 1165.750 C 624.758 1172.487, 622.368 1178, 622.643 1178 C 624.241 1178, 642.849 1134.516, 641.730 1133.397 C 641.519 1133.185, 639.640 1137.622, 637.556 1143.256 M 194.500 1141 C 198.320 1144.850, 201.671 1148, 201.946 1148 C 202.221 1148, 199.320 1144.850, 195.500 1141 C 191.680 1137.150, 188.329 1134, 188.054 1134 C 187.779 1134, 190.680 1137.150, 194.500 1141 M 623.498 1141.244 C 613.325 1167.397, 596.484 1196.315, 577.924 1219.500 C 573.961 1224.450, 571.738 1227.600, 572.984 1226.500 C 576.590 1223.315, 592.902 1201.131, 599.943 1189.836 C 610.490 1172.914, 628.313 1135.979, 626.706 1134.373 C 626.494 1134.161, 625.051 1137.253, 623.498 1141.244 M 41.490 1138 C 44.055 1146.681, 58.516 1177.389, 62.446 1182.500 C 63.292 1183.600, 60.660 1177.975, 56.597 1170 C 52.534 1162.025, 47.531 1151.225, 45.479 1146 C 41.801 1136.634, 40.047 1133.117, 41.490 1138 M 509.627 1166.500 C 506.829 1191.896, 506.789 1195.776, 509.536 1175.500 C 510.877 1165.600, 511.867 1155.700, 511.737 1153.500 C 511.607 1151.300, 510.657 1157.150, 509.627 1166.500 M 211 1155.314 C 211 1155.589, 213.250 1157.698, 216 1160 C 218.750 1162.302, 221 1163.961, 221 1163.686 C 221 1163.411, 218.750 1161.302, 216 1159 C 213.250 1156.698, 211 1155.039, 211 1155.314 M 226.500 1168.118 C 236.691 1176.913, 252.324 1192.733, 258.251 1200.250 C 261.613 1204.513, 264.534 1208, 264.744 1208 C 267.594 1208, 235.174 1173.758, 226 1167.079 C 221.520 1163.818, 221.523 1163.823, 226.500 1168.118 M 617.966 1184.750 C 605.656 1206.699, 589.829 1227.098, 566.566 1251 C 557.198 1260.625, 552.827 1265.350, 556.853 1261.500 C 581.759 1237.684, 595.820 1221.216, 610.271 1198.943 C 616.542 1189.276, 622.427 1179, 621.691 1179 C 621.416 1179, 619.740 1181.588, 617.966 1184.750 M 232.500 1190.597 C 249.537 1207.619, 261.263 1224.224, 268.160 1241.092 C 269.929 1245.418, 271.548 1248.786, 271.757 1248.576 C 272.476 1247.858, 266.018 1233.488, 261.536 1225.832 C 253.334 1211.821, 240.040 1195.734, 228.036 1185.291 C 223.901 1181.695, 225.541 1183.644, 232.500 1190.597 M 66.022 1188.500 C 69.243 1194.002, 74.005 1201, 74.528 1201 C 75.059 1201, 66.108 1186.889, 64.696 1185.500 C 64.137 1184.950, 64.734 1186.300, 66.022 1188.500 M 518.041 1213.041 C 516.749 1225.132, 515.898 1235.231, 516.150 1235.484 C 516.403 1235.736, 517.667 1226.050, 518.959 1213.959 C 520.251 1201.868, 521.102 1191.769, 520.850 1191.516 C 520.597 1191.264, 519.333 1200.950, 518.041 1213.041 M 505.141 1203.739 C 502.594 1224.964, 501.027 1241.738, 501.148 1246.500 C 501.230 1249.723, 501.564 1248.123, 502.087 1242 C 502.533 1236.775, 503.863 1224.029, 505.042 1213.676 C 506.221 1203.323, 506.989 1194.656, 506.749 1194.416 C 506.509 1194.175, 505.785 1198.371, 505.141 1203.739 M 60.561 1200.500 C 63.063 1204.882, 75.848 1222.788, 76.969 1223.481 C 77.754 1223.966, 68.301 1210.331, 60.674 1199.979 C 58.866 1197.524, 58.864 1197.530, 60.561 1200.500 M 77.472 1205.500 C 81.625 1211.304, 91.013 1223, 91.519 1223 C 92.010 1223, 77.378 1204.035, 75.702 1202.500 C 75.102 1201.950, 75.898 1203.300, 77.472 1205.500 M 267.612 1213.141 C 269.139 1215.538, 272.766 1222, 275.672 1227.500 C 281.373 1238.288, 282.999 1239.926, 277.877 1229.721 C 273.737 1221.473, 266.991 1210.112, 265.794 1209.372 C 265.267 1209.047, 266.086 1210.743, 267.612 1213.141 M 100.788 1233.750 C 105.742 1239.112, 111.060 1244.625, 112.604 1246 C 114.148 1247.375, 110.295 1242.987, 104.042 1236.250 C 97.788 1229.513, 92.471 1224, 92.226 1224 C 91.981 1224, 95.834 1228.388, 100.788 1233.750 M 84.181 1232.691 C 87.656 1236.921, 95.900 1245.834, 102.500 1252.498 C 109.100 1259.162, 110.630 1260.539, 105.899 1255.557 C 95.126 1244.212, 94.316 1243.313, 85.781 1233.250 C 81.933 1228.713, 78.577 1225, 78.323 1225 C 78.069 1225, 80.705 1228.461, 84.181 1232.691 M 557.991 1242.025 C 551.121 1249.188, 545.736 1255.038, 546.023 1255.025 C 546.888 1254.984, 571.779 1229, 570.953 1229 C 570.694 1229, 564.861 1234.861, 557.991 1242.025 M 513.547 1254.103 L 511.779 1271.224 514.103 1273.362 L 516.426 1275.500 514.600 1273.297 C 512.840 1271.172, 512.837 1270.503, 514.514 1254.507 C 515.471 1245.384, 516.042 1237.709, 515.784 1237.451 C 515.527 1237.193, 514.520 1244.687, 513.547 1254.103 M 281.502 1239.500 C 281.862 1240.600, 283.304 1244.875, 284.707 1249 C 286.110 1253.125, 288.296 1261.450, 289.564 1267.500 C 290.832 1273.550, 291.889 1277.375, 291.913 1276 C 292.015 1270.156, 284.766 1243.497, 281.868 1239.060 C 281.047 1237.803, 280.976 1237.888, 281.502 1239.500 M 118 1250.405 C 120.763 1253.496, 132 1263.437, 132 1262.790 C 132 1262.565, 128.287 1259.058, 123.750 1254.995 C 119.213 1250.932, 116.625 1248.867, 118 1250.405 M 500.228 1272.076 L 500 1292.651 502.750 1295.076 L 505.500 1297.500 503.271 1294.958 C 501.145 1292.534, 501.029 1291.475, 500.749 1271.958 L 500.456 1251.500 500.228 1272.076 M 274.610 1258.500 C 274.928 1260.150, 275.813 1264.473, 276.577 1268.106 C 280.016 1284.454, 280.286 1313.875, 277.075 1322.307 C 276.487 1323.851, 276.424 1324.856, 276.936 1324.540 C 282.020 1321.397, 281.048 1276.431, 275.540 1260 C 274.710 1257.525, 274.291 1256.850, 274.610 1258.500 M 539 1260.500 C 536.571 1262.975, 534.809 1265, 535.084 1265 C 535.359 1265, 537.571 1262.975, 540 1260.500 C 542.429 1258.025, 544.191 1256, 543.916 1256 C 543.641 1256, 541.429 1258.025, 539 1260.500 M 528.500 1269.657 C 524.220 1273.579, 524.090 1273.795, 527.596 1271.157 C 531.298 1268.372, 534.818 1264.941, 533.872 1265.038 C 533.668 1265.060, 531.250 1267.138, 528.500 1269.657 M 535.679 1278.927 C 527.452 1285.732, 526.337 1287.231, 533.750 1281.520 C 539.292 1277.250, 542.943 1273.895, 541.872 1274.056 C 541.668 1274.087, 538.881 1276.278, 535.679 1278.927 M 154 1279.404 C 154 1279.679, 156.025 1281.297, 158.500 1283 C 160.975 1284.703, 163 1285.871, 163 1285.596 C 163 1285.321, 160.975 1283.703, 158.500 1282 C 156.025 1280.297, 154 1279.129, 154 1279.404 M 292.811 1297 C 293.065 1307.175, 293.436 1315.688, 293.636 1315.917 C 294.279 1316.653, 293.808 1290.710, 293.066 1284.500 C 292.671 1281.200, 292.557 1286.825, 292.811 1297 M 153.235 1295.226 C 156.204 1297.750, 162 1301.368, 162 1300.698 C 162 1300.470, 159.412 1298.622, 156.250 1296.592 C 153.088 1294.562, 151.731 1293.947, 153.235 1295.226 M 292.300 1322 C 292.300 1325.025, 292.487 1326.263, 292.716 1324.750 C 292.945 1323.237, 292.945 1320.763, 292.716 1319.250 C 292.487 1317.737, 292.300 1318.975, 292.300 1322 M 290.695 1331.717 C 289.691 1337.697, 288.008 1340.924, 285.058 1342.528 C 283.651 1343.294, 283.083 1343.938, 283.795 1343.960 C 287.360 1344.070, 292.788 1333.994, 291.761 1329.175 C 291.564 1328.254, 291.085 1329.398, 290.695 1331.717 M 275.264 1344.718 C 276.784 1344.947, 279.034 1344.941, 280.264 1344.704 C 281.494 1344.467, 280.250 1344.279, 277.500 1344.286 C 274.750 1344.294, 273.744 1344.488, 275.264 1344.718"/>
  <path fill-rule="evenodd" fill="#783537" d="M 339.459 240.880 C 324.040 247.883, 324.518 269.887, 340.232 276.452 C 349.816 280.457, 360.673 276.114, 365.110 266.500 C 372.573 250.329, 355.718 233.494, 339.459 240.880 M 308.907 275.327 C 306.483 276.606, 303.152 279.568, 301.504 281.907 C 298.902 285.602, 298.507 287.039, 298.504 292.831 C 298.499 301.122, 300.963 306.290, 306.929 310.500 C 312.679 314.558, 323.319 314.856, 329.317 311.127 C 335.804 307.094, 338.500 301.893, 338.500 293.409 C 338.500 286.981, 338.165 285.696, 335.500 281.913 C 331.552 276.308, 325.243 273, 318.500 273 C 315.001 273, 311.881 273.757, 308.907 275.327 M 362 284.537 C 356.224 286.330, 350.725 290.911, 347.249 296.824 C 343.574 303.075, 343.303 315.181, 346.695 321.568 C 351.647 330.895, 362.352 336.760, 372.509 335.711 C 395.261 333.363, 404.292 304.533, 386.930 289.672 C 379.818 283.584, 370.950 281.758, 362 284.537 M 255.922 311.274 C 242.061 320.614, 245.709 340.403, 261.976 344.117 C 270.595 346.086, 281.171 338.711, 282.507 329.802 C 283.701 321.839, 279.814 314.075, 272.800 310.411 C 268.485 308.157, 259.896 308.596, 255.922 311.274 M 304.994 316.876 C 293.569 320.617, 286.813 329.633, 286.867 341.066 C 286.935 355.160, 297.067 365.360, 311 365.360 C 332.654 365.360, 343.566 339.802, 328.729 323.835 C 323.431 318.133, 311.678 314.687, 304.994 316.876 M 396.500 333.444 C 391.067 335.448, 384.449 342.619, 382.973 348.101 C 379.350 361.557, 388.478 374.828, 402.029 375.809 C 420.558 377.149, 432.031 358.673, 422.630 342.632 C 417.666 334.162, 405.834 330.001, 396.500 333.444 M 346.015 343.706 C 333.353 350.361, 330.018 367.117, 339.261 377.645 C 347.465 386.989, 360.828 388.119, 370.025 380.247 C 389.922 363.215, 369.124 331.561, 346.015 343.706 M 301.821 369.357 C 284.259 374.228, 277.631 395.863, 289.466 409.689 C 304.322 427.045, 333 416.560, 333 393.772 C 333 377.005, 317.632 364.971, 301.821 369.357 M 349 392.314 C 343.871 393.939, 336.392 401.831, 334.967 407.121 C 331.951 418.324, 336.170 429.737, 345.448 435.474 C 351.813 439.409, 362.018 439.750, 368.653 436.249 C 383.303 428.520, 385.918 408.880, 373.838 397.301 C 367.654 391.373, 358.051 389.445, 349 392.314"/>
  <path fill-rule="evenodd" fill="#ffffff" d="M 321.500 11.666 C 274.402 15.457, 240.492 23.326, 205 38.699 C 132.878 69.940, 68.576 133.893, 37.601 205.190 C 25.090 233.989, 17.788 260.292, 12.811 294.500 C 10.088 313.211, 9.202 402.836, 9.207 659 C 9.212 909.015, 10.265 1044.526, 12.324 1060 C 14.939 1079.655, 17.964 1095.803, 21.959 1111.447 C 50.362 1222.655, 148.499 1317.235, 260.733 1341.565 C 289.669 1347.838, 292.436 1344.472, 292.435 1303 C 292.434 1278.593, 290.775 1267.324, 284.360 1248.151 C 273.742 1216.413, 255.741 1192.512, 221 1164.021 C 158.219 1112.533, 117.613 1058.280, 104.974 1009 C 100.378 991.081, 99.930 985.922, 99.020 940.500 C 97.765 877.818, 98.797 750.205, 100.583 747.339 C 102.839 743.719, 108.364 742.485, 113.515 744.452 C 121.818 747.624, 134.782 763.737, 140.652 778.181 C 146.807 793.329, 147.924 805.193, 150.007 877.500 C 150.625 898.950, 151.586 919.503, 152.143 923.174 C 153.267 930.589, 153.703 931.377, 170.129 955.737 C 175.975 964.407, 183.883 977.350, 187.703 984.500 C 198.030 1003.832, 200.208 1003.889, 211.873 985.138 C 228.224 958.854, 242.105 941.725, 268.184 915.648 C 278.554 905.280, 287.482 895.968, 288.024 894.955 C 289.401 892.383, 287.279 888.108, 284.248 887.347 C 282.623 886.939, 280.889 887.446, 278.916 888.904 C 267.681 897.210, 264.008 897.926, 260.813 892.433 C 257.844 887.328, 247.446 815.505, 248.289 805.921 C 249.711 789.746, 264.663 774.303, 279.974 773.195 C 284.887 772.840, 286.020 773.113, 288.505 775.251 C 291.205 777.573, 291.396 778.259, 291.808 787.108 C 292.093 793.250, 292.846 797.711, 293.982 800 C 294.937 801.925, 296.510 806.875, 297.477 811 C 298.444 815.125, 300.986 822.447, 303.126 827.271 C 307.860 837.941, 310.590 847.733, 311.964 858.974 C 312.608 864.240, 313 901.351, 313 957.024 C 313 1025.361, 313.285 1046.885, 314.200 1047.800 C 316.154 1049.754, 321.778 1049.283, 322.965 1047.066 C 323.654 1045.778, 324 1017.917, 324 963.688 C 324 893.059, 324.196 882.082, 325.478 881.018 C 327.138 879.641, 328.473 880.794, 359.134 910.096 C 373.731 924.045, 377.817 927.372, 384.759 930.961 C 396.086 936.819, 398.338 939.647, 397.784 947.315 C 397.434 952.146, 396.211 955.434, 391.092 965.297 C 376.271 993.859, 367.274 1026.825, 364.953 1061.079 C 363.419 1083.720, 365.298 1104.081, 371.083 1127.500 C 375.052 1143.571, 377.911 1147.254, 383.549 1143.560 C 386.553 1141.592, 386.636 1139.155, 383.961 1131.407 C 378.200 1114.715, 374.320 1083.569, 375.442 1063.013 C 377.174 1031.264, 384.784 1004.387, 401.070 972.500 C 410.506 954.024, 413.569 945.681, 415.078 934.339 C 419.218 903.228, 405.147 868.335, 352.341 778.767 C 327.772 737.093, 324 728.384, 324 713.329 C 324 706.367, 326.450 689.577, 328.098 685.242 C 331.459 676.403, 341.639 673.254, 350.350 678.359 C 356.665 682.060, 383.282 710.688, 402.082 734 C 416.830 752.288, 440.057 786.211, 456.172 813 C 496.220 879.575, 516.250 934.787, 521.073 991.897 C 522.664 1010.746, 521.745 1050.854, 519.075 1079 C 517.953 1090.825, 515.683 1114.977, 514.029 1132.670 C 512.375 1150.364, 509.461 1177.384, 507.553 1192.714 C 502.684 1231.838, 501.012 1252.608, 501.006 1274.076 C 501 1292.070, 501.070 1292.715, 503.250 1294.698 C 508.913 1299.850, 510.923 1298.847, 537.500 1277.599 C 551 1266.807, 575.119 1243.075, 586.964 1228.928 C 624.327 1184.307, 646.307 1134.405, 654.544 1075.500 C 657.504 1054.329, 658.176 983.395, 658.209 688.500 C 658.243 390.192, 657.492 307.505, 654.557 286.500 C 650.668 258.668, 644.598 235.133, 635.383 212.156 C 615.114 161.618, 581.067 118.142, 530.676 78.451 C 516.094 66.966, 515.365 66.635, 512 70 C 508.011 73.989, 509.240 76.309, 519.750 84.633 C 552.125 110.273, 576.130 135.589, 595.484 164.500 C 622.871 205.412, 637.988 248.174, 645.156 305 C 646.829 318.265, 647.644 1016.372, 646.016 1042 C 641.163 1118.406, 614.380 1181.697, 563.285 1237.500 C 552.064 1249.754, 532.074 1268.307, 524.765 1273.250 C 519.802 1276.607, 517.906 1276.683, 514.402 1273.670 L 511.693 1271.339 515.406 1237.420 C 522.608 1171.621, 524.891 1149.241, 526.975 1124 C 528.133 1109.975, 530.278 1086.350, 531.741 1071.500 C 535.364 1034.719, 535.538 998.949, 532.187 979.500 C 514.552 877.153, 466.939 786.661, 382.496 695 C 354.409 664.512, 348.783 660.227, 338.272 661.311 C 334.425 661.708, 332.747 661.506, 332.401 660.601 C 332.133 659.905, 335.515 652.393, 339.915 643.907 C 355.721 613.428, 363.675 589.588, 367.556 561.058 C 370.736 537.689, 375.210 526.721, 385.940 515.991 C 394.829 507.102, 404.796 502.188, 423.500 497.471 C 472.651 485.076, 506.300 466.777, 537.720 435.357 C 556.697 416.380, 557.927 408.076, 543.345 397.389 C 525.131 384.040, 506.283 377.663, 485 377.648 C 469.713 377.638, 458.878 380.036, 445.437 386.403 C 421.993 397.508, 407.774 410.874, 387.518 440.845 C 374.665 459.863, 373.318 461.651, 372.476 460.809 C 371.268 459.601, 375.102 448.669, 381.685 434.553 C 391.564 413.369, 392.737 404.739, 387.508 391.684 C 385.908 387.687, 385.542 385.758, 386.340 385.514 C 386.978 385.319, 392 384.935, 397.500 384.660 C 415.284 383.772, 424.881 379.232, 429.092 369.713 C 431.074 365.232, 431.479 362.253, 431.973 348.500 C 432.846 324.231, 429.958 327.227, 476.500 302.295 C 510.651 284, 524.299 275.953, 533.843 268.486 C 552.843 253.619, 563.935 231.807, 563.983 209.218 C 564.019 191.709, 559.261 188.577, 536.895 191.391 C 530.078 192.249, 513.817 193.870, 500.759 194.994 C 466.947 197.905, 456.401 200.230, 440.385 208.303 C 420.595 218.278, 400.225 240.288, 392.470 260.076 C 391.180 263.369, 389.150 267.640, 387.960 269.565 C 385.595 273.391, 378.992 278.415, 377.876 277.237 C 377.492 276.832, 376.049 271.775, 374.669 266 C 367.524 236.107, 361.517 231.995, 331.587 236.506 C 312.552 239.375, 311 238.581, 311 225.975 C 311 208.770, 314.865 202.909, 348.043 169.809 C 375.754 142.163, 382.237 134.051, 387.878 119.965 C 392.763 107.764, 394.127 94.737, 391.959 81 C 390.366 70.907, 388.198 65.344, 384.715 62.413 C 381.779 59.943, 381.071 59.799, 374.035 60.245 C 360.516 61.100, 345.778 67.660, 329.242 80.184 C 308.211 96.111, 292.775 118.300, 285.809 142.616 C 283.844 149.474, 283.548 152.843, 283.531 168.500 C 283.512 186.771, 285.149 199.155, 289.654 214.824 C 290.496 217.752, 290.966 220.367, 290.698 220.635 C 290.431 220.903, 287.393 218.607, 283.949 215.533 C 264.676 198.336, 245.263 190.629, 221.500 190.741 C 204.452 190.820, 191.844 193.661, 167 203.018 C 160.125 205.607, 150.130 208.720, 144.789 209.936 C 129.233 213.477, 123.498 218.852, 124.223 229.212 C 125.084 241.520, 139.140 261.011, 153.115 269.276 C 173.021 281.047, 194.969 282.301, 236 274.012 C 260.327 269.098, 273.512 267, 280.066 267 C 284.356 267, 285.612 267.458, 288.077 269.923 C 290.680 272.526, 291 273.526, 291 279.055 C 291 291.016, 286.268 294.927, 270.397 296.082 C 258.080 296.979, 251.389 299.559, 246.464 305.313 C 239.635 313.292, 236.608 326.699, 239.438 336.435 C 242.316 346.335, 248.952 351.927, 262.811 356.132 C 279.627 361.234, 283.162 368.220, 279.441 389 C 275.089 413.306, 284.980 425.781, 311.524 429.462 C 329.642 431.975, 339.893 437.187, 346.734 447.367 C 355.865 460.952, 360.520 499.020, 356.642 528.381 C 355.177 539.470, 354.577 541.953, 353.612 540.917 C 353.399 540.687, 350.215 533.075, 346.536 524 C 342.858 514.925, 337.878 503.776, 335.471 499.225 C 309.051 449.280, 267.758 418.792, 217.295 411.972 C 202.938 410.032, 175.446 411.209, 160.637 414.398 C 148.499 417.012, 127.398 423.736, 120.848 427.078 C 108.752 433.248, 110.438 441.054, 129.345 466.412 C 153.524 498.841, 181.605 520.715, 213.500 531.964 C 226.127 536.418, 235.707 538.526, 257 541.536 C 290.790 546.312, 303.051 549.821, 319.469 559.416 C 334.276 568.068, 341 578.280, 341 592.111 C 341 601.377, 338.047 610.026, 328.104 629.878 C 319.103 647.849, 313.400 661.630, 312.417 667.786 C 311.613 672.824, 309.328 674.472, 304.423 673.552 C 298.914 672.518, 298 670.145, 298 656.877 C 298 630.574, 289.003 600.370, 275.553 581.523 C 266.589 568.960, 260.861 565.858, 245 564.976 C 228.509 564.060, 221.890 560.241, 210.821 545.258 C 200.094 530.737, 182.550 524.367, 170.501 530.620 C 162.403 534.822, 163.003 524.622, 162.978 658.484 C 162.957 773.882, 162.897 777.629, 161.027 781.750 C 159.966 784.087, 158.738 785.991, 158.299 785.980 C 157.860 785.969, 154.438 779.539, 150.696 771.691 C 142.548 754.601, 135.930 745.413, 127.065 738.880 C 119.170 733.062, 113.602 731, 105.790 731 C 98.984 731, 94.507 732.650, 91 736.452 L 88.500 739.162 88.500 864.331 L 88.500 989.500 90.797 1000 C 94.368 1016.323, 100.389 1033.042, 108.982 1050.500 C 130.005 1093.212, 161.843 1130.843, 211 1171.079 C 235.156 1190.851, 244.483 1200.362, 255.684 1216.640 C 273.847 1243.037, 282.676 1276.434, 280.029 1308.735 C 278.174 1331.378, 273.551 1333.677, 246.416 1325.454 C 206.155 1313.254, 171.481 1294.623, 136 1266.127 C 73.379 1215.834, 37.679 1154.142, 26.864 1077.533 C 25.121 1065.191, 24.766 1054.431, 23.913 988.237 C 22.516 879.751, 23.274 308.092, 24.829 297 C 30.108 259.359, 36.770 235.014, 49.483 206.905 C 81.659 135.761, 151.625 70.545, 225.245 43.074 C 254.642 32.104, 292.698 25.015, 322.250 25.003 C 329.664 25.001, 331.305 24.695, 333 23 C 335.262 20.738, 335.718 14.815, 333.750 13.253 C 332.140 11.975, 326.589 11.256, 321.500 11.666 M 350.912 88.362 C 344.538 91.301, 336.593 95.560, 333.255 97.827 C 311.789 112.404, 300.164 135.435, 298.339 167 C 297.492 181.646, 298.510 181.118, 306.583 162.717 C 309.773 155.448, 314.133 146.694, 316.272 143.264 C 319.902 137.444, 328.139 129, 330.186 129 C 331.731 129, 329.945 135.957, 324.826 149.877 C 320.790 160.856, 319.961 164.219, 320.204 168.629 L 320.500 174.003 333.500 162.302 C 351.008 146.544, 359.027 138.036, 365.359 128.500 C 376.022 112.441, 379.503 98.826, 375.134 90.262 C 370.600 81.376, 366.721 81.072, 350.912 88.362 M 210 206.608 C 205.325 207.462, 194.975 210.414, 187 213.169 C 167.734 219.824, 158.299 222.749, 153.706 223.493 C 151.619 223.831, 148.495 225.373, 146.763 226.920 C 144.035 229.358, 143.615 230.393, 143.615 234.687 C 143.615 245.737, 154.667 254.246, 176.671 260.138 C 186.110 262.665, 208.180 263.174, 220 261.137 C 227.347 259.870, 254.099 253.383, 263 250.710 L 267.500 249.358 263.323 247.196 C 255.809 243.306, 245.036 241.104, 226 239.567 C 207.331 238.059, 196 236.333, 196 234.998 C 196 233.900, 203.793 231.150, 211.573 229.502 C 219.815 227.756, 231.341 227.611, 246.447 229.062 C 252.526 229.646, 261.241 229.983, 265.814 229.812 L 274.129 229.500 270.425 225.178 C 257.072 209.597, 233.424 202.329, 210 206.608 M 508.500 208.091 C 470.485 210.632, 449.965 217.486, 429.627 234.438 C 417.121 244.861, 406.439 262.566, 401.533 281 C 397.376 296.621, 397.599 296.832, 407.750 286.878 C 424.841 270.119, 438.976 259.497, 454.500 251.746 C 461.948 248.028, 476.018 242.685, 476.663 243.330 C 476.876 243.542, 469.501 249.798, 460.275 257.232 C 442.074 271.897, 428.842 284.924, 422.173 294.745 C 417.909 301.024, 409.700 317.033, 410.390 317.724 C 410.594 317.927, 419.353 313.798, 429.854 308.547 C 440.356 303.296, 449.187 299, 449.479 299 C 450.739 299, 492.283 277.812, 500.156 273.155 C 512.769 265.693, 527.679 254.284, 534.106 247.176 C 547.551 232.310, 551.915 213.110, 542.909 208.453 C 539.790 206.840, 528.935 206.726, 508.500 208.091 M 337.804 241.041 C 324.290 248.177, 324.060 267.677, 337.397 275.493 C 352.357 284.259, 371.500 270.536, 367.126 254.181 C 364.509 244.395, 357.396 238.967, 347.290 239.044 C 343.549 239.073, 340.192 239.779, 337.804 241.041 M 311.886 273.560 C 306.043 275.360, 299.585 282.115, 297.968 288.117 C 293.784 303.657, 308.206 317.687, 324.121 313.558 C 333.949 311.009, 341.118 300.393, 339.566 290.687 C 338.253 282.474, 332.457 275.807, 324.603 273.475 C 318.682 271.716, 317.855 271.722, 311.886 273.560 M 360.463 284.591 C 344.012 290.432, 337.883 312.786, 349.039 326.251 C 356.826 335.649, 370.765 338.796, 381.449 333.569 C 398.251 325.348, 402.109 304.014, 389.140 291.044 C 381.657 283.562, 370.459 281.042, 360.463 284.591 M 259.685 309.017 C 246.767 312.894, 242.428 330.608, 252.169 339.702 C 267.328 353.856, 290.698 336.397, 281.393 317.869 C 277.727 310.570, 267.884 306.556, 259.685 309.017 M 300.500 318.383 C 281.644 327.297, 281.062 353.476, 299.500 363.318 C 305.193 366.358, 316.846 366.329, 322.643 363.261 C 327.808 360.527, 333.692 353.767, 334.998 349.065 C 336.413 343.974, 336.231 335.489, 334.625 331.645 C 329.200 318.660, 313.127 312.414, 300.500 318.383 M 395 333.594 C 375.968 341.838, 377.865 369.835, 397.849 375.645 C 410.918 379.444, 424.400 370.864, 426.556 357.376 C 428.052 348.018, 421.878 337.338, 412.782 333.549 C 408.094 331.596, 399.563 331.618, 395 333.594 M 346.444 342.886 C 340.854 345.425, 335.427 352.053, 333.972 358.115 C 329.561 376.503, 348.355 391.708, 365.500 383.623 C 379.600 376.973, 383.335 360.032, 373.183 348.773 C 366.396 341.244, 355.392 338.822, 346.444 342.886 M 299.627 369.407 C 276.885 377.874, 277.767 410.880, 300.917 417.654 C 317.645 422.549, 333.452 410.810, 333.444 393.500 C 333.439 382.998, 328.972 375.711, 319.529 370.799 C 314.442 368.154, 304.805 367.479, 299.627 369.407 M 350.954 391.323 C 333.652 396.134, 327.451 417.142, 339.344 430.654 C 344.481 436.490, 349.782 438.950, 357.282 438.978 C 374.602 439.044, 385.877 423.671, 380.839 406.858 C 377.398 395.373, 363.106 387.944, 350.954 391.323 M 464.815 396.395 C 433.184 404.769, 406.466 431.853, 391.963 470.246 C 390.146 475.057, 388.961 479.294, 389.330 479.663 C 389.699 480.032, 395.513 474.953, 402.250 468.376 C 416.862 454.112, 424.221 448.347, 435.257 442.521 C 442.508 438.693, 452.391 435, 455.384 435 C 457.153 435, 448.960 442.810, 436 453.479 C 429.125 459.139, 421.857 465.508, 419.850 467.634 C 414.789 472.993, 407.704 483.401, 408.855 483.785 C 410.138 484.213, 432.798 478.590, 447 474.321 C 478.476 464.858, 502.103 450.604, 517.947 431.517 C 528.718 418.543, 530.849 413.968, 528.614 408.619 C 526.998 404.751, 523.967 402.651, 515.287 399.384 C 499.435 393.417, 480.336 392.286, 464.815 396.395 M 183.500 426.576 C 162.193 429.554, 154.784 431.221, 147.167 434.752 C 134.649 440.554, 135.059 448.673, 148.798 467 C 166.453 490.552, 189.970 508.447, 211.792 514.935 C 226.955 519.442, 314.640 537.693, 315.759 536.574 C 316.871 535.462, 308.463 524.398, 300.032 515.880 C 288.522 504.251, 270.196 492.844, 235.750 475.867 C 230.938 473.495, 227 471.247, 227 470.872 C 227 470.020, 233.112 470.693, 243.500 472.691 C 264.537 476.735, 286.193 488.166, 311.929 508.808 C 318.215 513.850, 323.571 517.762, 323.832 517.502 C 324.701 516.632, 314.182 496.168, 308.305 487.299 C 300.784 475.947, 284.350 458.949, 273.256 451.045 C 258.227 440.338, 240.219 432.560, 222 428.905 C 212.929 427.085, 189.845 425.689, 183.500 426.576 M 176.923 543.923 L 174 546.846 174 652.445 L 174 758.043 176.448 759.158 C 178.709 760.188, 179.300 759.822, 184.145 754.387 C 189.784 748.062, 206.250 731.558, 214.816 723.646 C 221.452 717.517, 225.118 710.428, 225.742 702.519 C 226.313 695.281, 224.415 635.722, 222.922 614 C 220.730 582.133, 215.030 565.799, 200.949 551.033 C 193.743 543.477, 189.613 541.008, 184.173 541.004 C 180.721 541.001, 179.255 541.591, 176.923 543.923 M 241.053 580.444 C 239.194 582.422, 238.578 584.662, 237.817 592.194 C 236.698 603.263, 237.200 694.725, 238.393 697.259 C 239.780 700.206, 243.781 700.504, 248.873 698.040 C 254.718 695.212, 271.732 684.115, 279.161 678.287 C 286.458 672.561, 287.503 669.925, 287.402 657.500 C 287.156 627.286, 269.672 588.313, 252.672 580.083 C 247.035 577.354, 243.863 577.453, 241.053 580.444 M 288.301 690.890 C 274.189 696.115, 244.329 715.189, 223.989 731.972 C 189.458 760.463, 160 803.278, 160 824.974 C 160 827.276, 160.724 834.636, 161.609 841.330 C 162.895 851.052, 163.061 857.222, 162.437 872 C 160.872 909.037, 161.485 914.235, 169.330 930.500 C 173.426 938.993, 193.444 970.809, 196.226 973.250 C 197.324 974.212, 199.141 975, 200.266 975 C 203.190 975, 209.776 967.654, 213.041 960.750 C 217.473 951.377, 217.644 947.031, 214.122 933.317 C 208.556 911.648, 207.645 903.765, 207.730 878 C 207.922 819.270, 220.162 793.104, 257.948 770.645 C 264.994 766.457, 273.175 761.219, 276.129 759.004 C 301.560 739.939, 318.152 709.335, 309.750 696.990 C 304.650 689.496, 297.533 687.472, 288.301 690.890 M 324.206 804.250 L 324.500 843.500 327.132 849.112 C 336.288 868.639, 359.164 895.376, 383.194 914.637 C 389.626 919.792, 395.165 924.458, 395.503 925.005 C 396.550 926.698, 402.572 926.131, 404.345 924.171 C 406.842 921.412, 406.425 918.750, 401.114 903.500 C 387.681 864.929, 371.137 832.950, 342.395 790 C 326.658 766.483, 325.602 765, 324.596 765 C 324.220 765, 324.045 782.663, 324.206 804.250 M 230.143 823.750 C 227.031 829.900, 223.349 840.945, 221.391 850 C 218.629 862.779, 218.832 889.883, 221.834 909 C 224.876 928.376, 225.591 930.857, 228.516 932.189 C 231.249 933.434, 233.250 932.194, 243.242 923.062 C 252.592 914.517, 252.756 913.413, 248.077 890.693 C 242.797 865.058, 234 821.219, 234 820.542 C 234 818.702, 231.750 820.574, 230.143 823.750"/>
  </g>
</svg>
